# cgf-converter .obj export version 1.0.0.0
#
mtllib lo2park_segment4_base_b.mtl
o Merged
g Merged
v 9.1440010 -30.6315231 -9.8708248
v 9.1440010 -15.7294140 -1.2671143
v -9.1440010 -15.7294140 -1.2671143
v 9.1440010 -15.1867285 -1.0141406
v -9.1440010 -30.6315231 -9.8708248
v -9.1440010 -15.1867285 -1.0141406
v 9.1440010 -30.7731056 -9.9499702
v 9.1440010 -14.6070604 -0.8588281
v -9.1440010 -30.7731056 -9.9499702
v -9.1440010 -14.6070604 -0.8588281
v -9.1440010 -30.8752232 -10.1040230
v 9.1440010 -14.0105858 -0.8065576
v 9.1440010 -30.8752232 -10.1040230
v -9.1440010 -14.0105858 -0.8065576
v 9.1440010 -30.8780556 -10.2327662
v -9.1440010 -30.8780556 -10.2327662
v -9.1440010 -5.1704493 -0.8065332
v 9.1440010 -5.1704493 -0.8065332
v 9.1440010 -4.3659177 -0.7854736
v -9.1440010 -4.3659177 -0.7854736
v 9.1440010 -3.5639844 -0.7223584
v -9.1440010 -3.5639844 -0.7223584
v 9.1440010 -2.7664256 -0.6173584
v -9.1440010 -2.7664256 -0.6173584
v 9.1440010 -1.9753906 -0.4707568
v -9.1440010 -1.9753906 -0.4707568
v 9.1440010 -1.1932226 -0.2829590
v -9.1440010 -1.1932226 -0.2829590
v 9.1440010 -0.4206055 -0.0541016
v -9.1440010 -0.4206055 -0.0541016
v -9.1440010 -0.1569336 0.0129687
v 9.1440010 -0.1569336 0.0129687
v 9.1440010 0.0451758 0.0128223
v -9.1440010 0.0451758 0.0128223
v -9.1440010 0.3033008 -0.0721045
v 9.1440010 0.3033008 -0.0721045

vt -0.2548742 -0.7375656 0
vt 0.9144750 -0.0579405 0
vt 0.1921253 1.1849203 0
vt 0.9548906 -0.0344514 0
vt -0.9772238 0.5052943 0
vt 0.2325418 1.2084100 0
vt -0.2654278 -0.7437000 0
vt 0.9953080 -0.0109620 0
vt -0.9877771 0.4991602 0
vt 0.2729601 1.2318999 0
vt -0.9998378 0.4921495 0
vt 1.0357208 0.0125239 0
vt -0.2774896 -0.7507112 0
vt 0.3133730 1.2553859 0
vt -0.2857330 -0.7555027 0
vt -1.0080805 0.4873583 0
vt 0.9140756 1.6045101 0
vt 1.6364245 0.3616489 0
vt 1.6911843 0.3934726 0
vt 0.9688327 1.6363322 0
vt 1.7459447 0.4252964 0
vt 1.0235908 1.6681545 0
vt 1.8007058 0.4571208 0
vt 1.0783485 1.6999764 0
vt 1.8554697 0.4889479 0
vt 1.1331091 1.7318015 0
vt 1.9102238 0.5207701 0
vt 1.1878630 1.7636236 0
vt 1.9649827 0.5525955 0
vt 1.2426221 1.7954490 0
vt 1.2608048 1.8060163 0
vt 1.9831651 0.5631626 0
vt 1.9964573 0.5708884 0
vt 1.2740988 1.8137429 0
vt 1.2922738 1.8243067 0
vt 2.0146313 0.5814517 0

vn 0.0000000 -0.4951672 0.8687977
vn 0.0000000 -0.4970803 0.8677045
vn 0.0000000 -0.4560933 0.8899320
vn 0.0000000 -0.4208587 0.9071262
vn 0.0000000 -0.4920602 0.8705611
vn 0.0000000 -0.2605510 0.9654600
vn 0.0000000 -0.7360796 0.6768949
vn 0.0000000 -0.2570584 0.9663958
vn 0.0000000 -0.4905124 0.8714342
vn 0.0000000 -0.0891026 0.9960224
vn 0.0000000 -0.9215002 0.3883779
vn 0.0000000 -0.0529541 0.9985969
vn 0.0000000 -0.9996768 0.0254225
vn 0.0000000 -0.0024803 0.9999969
vn 0.0000000 -0.9997582 0.0219923
vn 0.0000000 -0.9997580 0.0219923
vn 0.0000000 -0.0158377 0.9998745
vn 0.0000000 -0.0009909 0.9999995
vn 0.0000000 -0.0268995 0.9996381
vn 0.0000000 -0.0777306 0.9969743
vn 0.0000000 -0.0791912 0.9968594
vn 0.0000000 -0.1297994 0.9915402
vn 0.0000000 -0.1312514 0.9913490
vn 0.0000000 -0.1815057 0.9833897
vn 0.0000000 -0.1829461 0.9831229
vn 0.0000000 -0.2327515 0.9725362
vn 0.0000000 -0.2341770 0.9721940
vn 0.0000000 -0.2833109 0.9590281
vn 0.0000000 -0.2713642 0.9624768
vn 0.0000000 -0.2475567 0.9688734
vn 0.0000000 -0.0829801 0.9965512
vn 0.0000000 -0.2448290 0.9695662
vn 0.0000000 0.1067540 0.9942854
vn 0.0000000 0.3104416 0.9505924
vn 0.0000000 0.3125328 0.9499069
vn 0.0000000 0.3125328 0.9499069
usemtl Merged_0
f 1/1/1 2/2/2 3/3/3
f 3/3/3 2/2/2 4/4/4
f 3/3/3 5/5/5 1/1/1
f 4/4/4 6/6/6 3/3/3
f 7/7/7 1/1/1 5/5/5
f 6/6/6 4/4/4 8/8/8
f 5/5/5 9/9/9 7/7/7
f 8/8/8 10/10/10 6/6/6
f 7/7/7 9/9/9 11/11/11
f 10/10/10 8/8/8 12/12/12
f 11/11/11 13/13/13 7/7/7
f 12/12/12 14/14/14 10/10/10
f 15/15/15 13/13/13 11/11/11
f 11/11/11 16/16/16 15/15/15
f 17/17/17 14/14/14 12/12/12
f 12/12/12 18/18/18 17/17/17
f 17/17/17 18/18/18 19/19/19
f 19/19/19 20/20/20 17/17/17
f 20/20/20 19/19/19 21/21/21
f 21/21/21 22/22/22 20/20/20
f 22/22/22 21/21/21 23/23/23
f 23/23/23 24/24/24 22/22/22
f 24/24/24 23/23/23 25/25/25
f 25/25/25 26/26/26 24/24/24
f 26/26/26 25/25/25 27/27/27
f 27/27/27 28/28/28 26/26/26
f 28/28/28 27/27/27 29/29/29
f 29/29/29 30/30/30 28/28/28
f 31/31/31 30/30/30 29/29/29
f 29/29/29 32/32/32 31/31/31
f 31/31/31 32/32/32 33/33/33
f 33/33/33 34/34/34 31/31/31
f 35/35/35 34/34/34 33/33/33
f 33/33/33 36/36/36 35/35/35
g Merged
v 9.1440010 -30.6167774 -9.8969479
v 9.1440010 -15.7155657 -1.2937256
v -9.1440010 -15.7155657 -1.2937256
v 9.1440010 -15.1764641 -1.0423291
v -9.1440010 -30.6167774 -9.8969479
v -9.1440010 -15.1764641 -1.0423291
v 9.1440010 -30.7527924 -9.9720459
v 9.1440010 -14.6018553 -0.8883740
v -9.1440010 -30.7527924 -9.9720459
v -9.1440010 -14.6018553 -0.8883740
v -9.1440010 -30.8378506 -10.0543499
v 9.1440010 -14.0092773 -0.8365283
v 9.1440010 -30.8378506 -10.0543499
v -9.1440010 -14.0092773 -0.8365283
v -9.1440010 -30.8552818 -10.1714182
v -9.1440010 -5.1700583 -0.8365283
v 9.1440010 -30.8552818 -10.1714182
v 9.1440010 -5.1700583 -0.8365283
v 9.1440010 -30.8480568 -10.2331390
v -9.1440010 -30.8480568 -10.2331390
v 9.1440010 -4.3643556 -0.8154346
v -9.1440010 -4.3643556 -0.8154346
v 9.1440010 -3.5608397 -0.7521924
v -9.1440010 -3.5608397 -0.7521924
v 9.1440010 -2.7617383 -0.6469873
v -9.1440010 -2.7617383 -0.6469873
v 9.1440010 -1.9691601 -0.5001025
v -9.1440010 -1.9691601 -0.5001025
v 9.1440010 -1.1854492 -0.3119385
v -9.1440010 -1.1854492 -0.3119385
v 9.1440010 -0.4126367 -0.0830225
v -9.1440010 -0.4126367 -0.0830225
v -9.1440010 -0.1532031 -0.0167969
v 9.1440010 -0.1532031 -0.0167969
v 9.1440010 -0.0233984 -0.0032812
v -9.1440010 -0.0233984 -0.0032812
v 9.1440010 0.1042383 -0.0303125
v -9.1440010 0.1042383 -0.0303125
v -9.1440010 0.2938867 -0.1005908
v 9.1440010 0.2938867 -0.1005908

vt -0.2548742 -0.7375656 0
vt 0.9144750 -0.0579405 0
vt 0.1921253 1.1849203 0
vt 0.9548906 -0.0344514 0
vt -0.9772238 0.5052943 0
vt 0.2325418 1.2084100 0
vt -0.2654278 -0.7437000 0
vt 0.9953080 -0.0109620 0
vt -0.9877771 0.4991602 0
vt 0.2729601 1.2318999 0
vt -0.9958173 0.4944866 0
vt 1.0357208 0.0125239 0
vt -0.2734686 -0.7483739 0
vt 0.3133730 1.2553859 0
vt -1.0038583 0.4898124 0
vt 0.9140756 1.6045101 0
vt -0.2815107 -0.7530484 0
vt 1.6364245 0.3616489 0
vt -0.2857330 -0.7555027 0
vt -1.0080805 0.4873583 0
vt 1.6911843 0.3934726 0
vt 0.9688327 1.6363322 0
vt 1.7459447 0.4252964 0
vt 1.0235908 1.6681545 0
vt 1.8007058 0.4571208 0
vt 1.0783485 1.6999764 0
vt 1.8554697 0.4889479 0
vt 1.1331091 1.7318015 0
vt 1.9102238 0.5207701 0
vt 1.1878630 1.7636236 0
vt 1.9649827 0.5525955 0
vt 1.2426221 1.7954490 0
vt 1.2608048 1.8060163 0
vt 1.9831651 0.5631626 0
vt 1.9920264 0.5683128 0
vt 1.2696669 1.8111670 0
vt 2.0008883 0.5734640 0
vt 1.2785306 1.8163189 0
vt 1.2922738 1.8243067 0
vt 2.0146313 0.5814517 0

vn 0.0000000 -0.4933301 0.8698422
vn 0.0000000 -0.4971046 0.8676906
vn 0.0000000 -0.4561649 0.8898953
vn 0.0000000 -0.4210009 0.9070601
vn 0.0000000 -0.4890393 0.8722617
vn 0.0000000 -0.2605379 0.9654636
vn 0.0000000 -0.6292415 0.7772099
vn 0.0000000 -0.2570652 0.9663940
vn 0.0000000 -0.4842899 0.8749075
vn 0.0000000 -0.0889492 0.9960361
vn 0.0000000 -0.6962775 0.7177727
vn 0.0000000 -0.0528703 0.9986014
vn 0.0000000 -0.9889097 0.1485177
vn 0.0000000 -0.0024580 0.9999970
vn 0.0000000 -0.9982201 0.0596376
vn 0.0000000 -0.0158393 0.9998745
vn 0.0000000 -0.9933397 -0.1152227
vn 0.0000000 -0.0009898 0.9999995
vn 0.0000000 -0.9932153 -0.1162896
vn 0.0000000 -0.9932153 -0.1162896
vn 0.0000000 -0.0269052 0.9996380
vn 0.0000000 -0.0777325 0.9969742
vn 0.0000000 -0.0791956 0.9968591
vn 0.0000000 -0.1298004 0.9915401
vn 0.0000000 -0.1312551 0.9913486
vn 0.0000000 -0.1815011 0.9833907
vn 0.0000000 -0.1829442 0.9831232
vn 0.0000000 -0.2327451 0.9725377
vn 0.0000000 -0.2341723 0.9721950
vn 0.0000000 -0.2833102 0.9590282
vn 0.0000000 -0.2716412 0.9623985
vn 0.0000000 -0.2483527 0.9686697
vn 0.0000000 -0.1522204 0.9883466
vn 0.0000000 -0.2466950 0.9690931
vn 0.0000000 -0.1028693 0.9946948
vn 0.0000000 0.2065050 0.9784455
vn 0.0000000 0.2548484 0.9669810
vn 0.0000000 0.3468589 0.9379172
vn 0.0000000 0.3474803 0.9376872
vn 0.0000000 0.3474803 0.9376873
usemtl Merged_6
f 37/37/37 38/38/38 39/39/39
f 39/39/39 38/38/38 40/40/40
f 39/39/39 41/41/41 37/37/37
f 40/40/40 42/42/42 39/39/39
f 43/43/43 37/37/37 41/41/41
f 42/42/42 40/40/40 44/44/44
f 41/41/41 45/45/45 43/43/43
f 44/44/44 46/46/46 42/42/42
f 43/43/43 45/45/45 47/47/47
f 46/46/46 44/44/44 48/48/48
f 47/47/47 49/49/49 43/43/43
f 48/48/48 50/50/50 46/46/46
f 49/49/49 47/47/47 51/51/51
f 52/52/52 50/50/50 48/48/48
f 51/51/51 53/53/53 49/49/49
f 48/48/48 54/54/54 52/52/52
f 55/55/55 53/53/53 51/51/51
f 51/51/51 56/56/56 55/55/55
f 52/52/52 54/54/54 57/57/57
f 57/57/57 58/58/58 52/52/52
f 58/58/58 57/57/57 59/59/59
f 59/59/59 60/60/60 58/58/58
f 60/60/60 59/59/59 61/61/61
f 61/61/61 62/62/62 60/60/60
f 62/62/62 61/61/61 63/63/63
f 63/63/63 64/64/64 62/62/62
f 64/64/64 63/63/63 65/65/65
f 65/65/65 66/66/66 64/64/64
f 66/66/66 65/65/65 67/67/67
f 67/67/67 68/68/68 66/66/66
f 69/69/69 68/68/68 67/67/67
f 67/67/67 70/70/70 69/69/69
f 69/69/69 70/70/70 71/71/71
f 71/71/71 72/72/72 69/69/69
f 72/72/72 71/71/71 73/73/73
f 73/73/73 74/74/74 72/72/72
f 75/75/75 74/74/74 73/73/73
f 73/73/73 76/76/76 75/75/75
