# cgf-converter .obj export version 1.0.0.0
#
mtllib lo2park_segment9_rail_b.mtl
o Merged
g Merged
v 4.1015983 -20.4326286 1.1263943
v 4.1015983 -20.5813770 0.6599955
v 4.1015983 -16.1857414 -0.2715127
v 4.1015983 -24.7390995 2.2803094
v 4.1015983 -16.1261597 -0.0275210
v 4.1015983 -16.0737267 -0.2924381
v 4.1015983 -16.0164165 -0.0569265
v 4.1015983 -16.1310368 -0.5279499
v 4.1015983 -16.2453251 -0.5155044
v 4.1015983 -20.7301273 0.1935967
v 4.1015983 -24.9770145 1.3707767
v 4.1015983 -24.8488407 2.3097150
v 4.1015983 -25.2149296 0.4612437
v 4.1015983 -25.0890274 1.3917019
v 4.1015983 -25.3292160 0.4736891
v 4.0338645 -16.0164165 -0.0569265
v 4.0338645 -16.0737267 -0.2924382
v 3.9661314 -16.0737267 -0.2924381
v 3.9661314 -16.0737267 -0.2924381
v 3.9661314 -16.0164165 -0.0569265
v 4.0338645 -16.0164165 -0.0569265
v 3.8983982 -24.7390995 2.2803094
v 3.8983982 -20.4326286 1.1263940
v 3.8983982 -20.5813770 0.6599953
v 3.8983982 -24.9770145 1.3707767
v 3.8983982 -24.8488407 2.3097150
v 3.8983982 -25.0890274 1.3917019
v 3.8983982 -25.2149258 0.4612437
v 3.8983982 -25.3292160 0.4736891
v 3.8983982 -20.7301273 0.1935966
v 3.8983982 -16.2453251 -0.5155045
v 3.8983982 -16.1857414 -0.2715127
v 3.8983982 -16.1310368 -0.5279499
v 3.8983982 -16.1261578 -0.0275211
v 3.8983982 -16.0737267 -0.2924381
v 3.8983982 -16.0164165 -0.0569265
v 3.9661314 -24.8488407 2.3097150
v 3.9661314 -25.0890274 1.3917019
v 4.0338645 -25.0890274 1.3917019
v 4.1015983 -24.8488407 2.3097150
v 4.0338645 -24.8488407 2.3097150
v 4.0338645 -25.0890274 1.3917019
v 4.0338645 -24.8488407 2.3097150
v 3.9661314 -24.8488407 2.3097150
v 4.1015983 -25.0890274 1.3917019
v 4.1015983 -24.8488407 2.3097150
v 4.1015983 -16.0164165 -0.0569265
v 4.1015983 -16.0737267 -0.2924381
v 4.0338645 -16.0737267 -0.2924382
v 4.0338645 -16.0737267 -0.2924382
v 4.0338645 -16.0164165 -0.0569265
v 4.1015983 -16.0164165 -0.0569265
v 3.8983982 -16.1310368 -0.5279499
v 3.8983982 -16.0737267 -0.2924381
v 3.9661314 -16.0737267 -0.2924381
v 3.9661314 -16.0737267 -0.2924381
v 3.9661314 -16.1310368 -0.5279499
v 3.8983982 -24.8488407 2.3097150
v 3.8983982 -25.0890274 1.3917019
v 3.9661314 -25.0890274 1.3917019
v 3.9661314 -25.0890274 1.3917019
v 3.9661314 -24.8488407 2.3097150
v 3.8983982 -24.8488407 2.3097150
v 3.8983982 -25.3292160 0.4736891
v 3.9661314 -25.3292160 0.4736891
v 3.9661314 -25.0890274 1.3917019
v 3.8983982 -25.0890274 1.3917019
v 4.0338645 -25.0890274 1.3917019
v 3.9661314 -25.3292160 0.4736891
v 4.0338645 -25.3292160 0.4736891
v 4.0338645 -25.0890274 1.3917019
v 4.1015983 -25.3292160 0.4736891
v 4.1015983 -25.3292160 0.4736891
v 4.1015983 -25.0890274 1.3917019
v 4.0338645 -16.1310368 -0.5279499
v 3.9661314 -16.1310368 -0.5279499
v 3.9661314 -16.0737267 -0.2924381
v 3.9661314 -16.0737267 -0.2924381
v 4.0338645 -16.0737267 -0.2924382
v 4.0338645 -16.1310368 -0.5279499
v 4.1015983 -16.1310368 -0.5279499
v 4.0338645 -16.1310368 -0.5279499
v 4.0338645 -16.0737267 -0.2924382
v 4.0338645 -16.0737267 -0.2924382
v 4.1015983 -16.0737267 -0.2924381
v 4.1015983 -16.1310368 -0.5279499
v 3.8983982 -16.0164165 -0.0569265
v 3.9661314 -16.0164165 -0.0569265
v 3.9661314 -16.0737267 -0.2924381
v 3.8983982 -16.0737267 -0.2924381
v 3.8983982 -16.0164165 -0.0569265

vt -2.3622258 0.4167545 0
vt -2.3438458 0.2143171 0
vt -0.5118846 0.5675030 0
vt -4.1959777 0.1630460 0
vt -0.5284739 0.6704630 0
vt -0.4656541 0.5775793 0
vt -0.4817439 0.6769283 0
vt -0.4495644 0.4782302 0
vt -0.4952953 0.4645430 0
vt -2.3254662 0.0118799 0
vt -4.1401777 -0.2233102 0
vt -4.2427077 0.1565807 0
vt -4.0843778 -0.6096666 0
vt -4.1864080 -0.2333865 0
vt -4.1301084 -0.6233537 0
vt -0.4539810 0.6814238 0
vt -0.4378923 0.5820746 0
vt -0.4101304 0.5865701 0
vt -0.4101304 0.5865701 0
vt -0.4262181 0.6859195 0
vt -0.4539810 0.6814238 0
vt 3.2881384 1.3749932 0
vt 1.4680327 1.0370106 0
vt 1.5144804 0.8391185 0
vt 3.3571224 0.9907719 0
vt 3.3345206 1.3836061 0
vt 3.4041700 0.9958007 0
vt 3.4261065 0.6065506 0
vt 3.4738197 0.6079954 0
vt 1.5609281 0.6412264 0
vt -0.3185688 0.4931607 0
vt -0.3353209 0.5960943 0
vt -0.3662820 0.4917159 0
vt -0.3520730 0.6990280 0
vt -0.3823686 0.5910655 0
vt -0.3984552 0.6904150 0
vt -4.2983766 0.1485442 0
vt -4.2420769 -0.2414230 0
vt -4.2142425 -0.2374048 0
vt -4.2427077 0.1565807 0
vt -4.2705421 0.1525624 0
vt -4.2142425 -0.2374048 0
vt -4.2705421 0.1525624 0
vt -4.2983766 0.1485442 0
vt -4.1864080 -0.2333865 0
vt -4.2427077 0.1565807 0
vt -0.4817439 0.6769283 0
vt -0.4656541 0.5775793 0
vt -0.4378923 0.5820746 0
vt -0.4378923 0.5820746 0
vt -0.4539810 0.6814238 0
vt -0.4817439 0.6769283 0
vt -0.3662820 0.4917159 0
vt -0.3823686 0.5910655 0
vt -0.4101304 0.5865701 0
vt -0.4101304 0.5865701 0
vt -0.3940428 0.4872207 0
vt -4.3262110 0.1445259 0
vt -4.2699113 -0.2454413 0
vt -4.2420769 -0.2414230 0
vt -4.2420769 -0.2414230 0
vt -4.2983766 0.1485442 0
vt -4.3262110 0.1445259 0
vt -4.2136111 -0.6354085 0
vt -4.1857767 -0.6313903 0
vt -4.2420769 -0.2414230 0
vt -4.2699113 -0.2454413 0
vt -4.2142425 -0.2374048 0
vt -4.1857767 -0.6313903 0
vt -4.1579428 -0.6273720 0
vt -4.2142425 -0.2374048 0
vt -4.1301084 -0.6233537 0
vt -4.1301084 -0.6233537 0
vt -4.1864080 -0.2333865 0
vt -0.4218036 0.4827254 0
vt -0.3940428 0.4872207 0
vt -0.4101304 0.5865701 0
vt -0.4101304 0.5865701 0
vt -0.4378923 0.5820746 0
vt -0.4218036 0.4827254 0
vt -0.4495644 0.4782302 0
vt -0.4218036 0.4827254 0
vt -0.4378923 0.5820746 0
vt -0.4378923 0.5820746 0
vt -0.4656541 0.5775793 0
vt -0.4495644 0.4782302 0
vt -0.3984552 0.6904150 0
vt -0.4262181 0.6859195 0
vt -0.4101304 0.5865701 0
vt -0.3823686 0.5910655 0
vt -0.3984552 0.6904150 0

vn 0.9999999 0.0000000 0.0000000
vn 0.9999999 0.0000000 0.0000000
vn 0.9999999 0.0000000 0.0000000
vn 0.9999999 0.0000000 0.0000000
vn 0.9999999 0.0000000 0.0000000
vn 0.9999999 0.0000000 0.0000000
vn 0.9999999 0.0000000 0.0000000
vn 0.9999999 0.0000000 0.0000000
vn 0.9999999 0.0000000 0.0000000
vn 0.9999999 0.0000000 0.0000000
vn 0.9999999 0.0000000 0.0000000
vn 0.9999999 0.0000000 0.0000000
vn 0.9999999 0.0000000 0.0000000
vn 0.9999999 0.0000000 0.0000000
vn 0.9999999 0.0000000 0.0000000
vn -0.0000001 0.9716447 -0.2364457
vn -0.0000001 0.9716447 -0.2364457
vn -0.0000001 0.9716447 -0.2364457
vn 0.0000000 0.9716446 -0.2364457
vn 0.0000000 0.9716446 -0.2364457
vn 0.0000000 0.9716446 -0.2364457
vn -0.9999999 0.0000000 0.0000000
vn -0.9999999 0.0000000 0.0000000
vn -0.9999999 0.0000000 0.0000000
vn -0.9999999 0.0000000 0.0000000
vn -0.9999999 0.0000000 0.0000000
vn -0.9999999 0.0000000 0.0000000
vn -0.9999999 0.0000000 0.0000000
vn -0.9999999 0.0000000 0.0000000
vn -0.9999999 0.0000000 0.0000000
vn -0.9999999 0.0000000 0.0000000
vn -0.9999999 0.0000000 0.0000000
vn -0.9999999 0.0000000 0.0000000
vn -0.9999999 0.0000000 0.0000000
vn -0.9999999 0.0000000 0.0000000
vn -0.9999999 0.0000000 0.0000000
vn 0.0000000 -0.9674354 0.2531179
vn 0.0000000 -0.9674354 0.2531179
vn 0.0000000 -0.9674355 0.2531180
vn 0.0000000 -0.9674353 0.2531179
vn 0.0000000 -0.9674354 0.2531180
vn 0.0000000 -0.9674354 0.2531179
vn 0.0000000 -0.9674354 0.2531179
vn 0.0000000 -0.9674355 0.2531180
vn 0.0000000 -0.9674354 0.2531179
vn 0.0000000 -0.9674355 0.2531180
vn 0.0000001 0.9716447 -0.2364457
vn 0.0000001 0.9716446 -0.2364457
vn 0.0000001 0.9716446 -0.2364457
vn 0.0000000 0.9716446 -0.2364457
vn 0.0000000 0.9716448 -0.2364457
vn 0.0000000 0.9716447 -0.2364457
vn 0.0000000 0.9716441 -0.2364480
vn 0.0000000 0.9716441 -0.2364480
vn 0.0000000 0.9716441 -0.2364480
vn 0.0000000 0.9716440 -0.2364480
vn 0.0000000 0.9716441 -0.2364480
vn 0.0000000 -0.9674354 0.2531179
vn 0.0000000 -0.9674354 0.2531179
vn 0.0000000 -0.9674355 0.2531180
vn 0.0000000 -0.9674354 0.2531180
vn 0.0000000 -0.9674353 0.2531179
vn 0.0000000 -0.9674355 0.2531180
vn 0.0000000 -0.9674354 0.2531180
vn 0.0000000 -0.9674354 0.2531180
vn 0.0000000 -0.9674354 0.2531180
vn 0.0000000 -0.9674354 0.2531180
vn 0.0000000 -0.9674354 0.2531180
vn 0.0000000 -0.9674354 0.2531180
vn 0.0000000 -0.9674354 0.2531180
vn 0.0000000 -0.9674354 0.2531180
vn 0.0000000 -0.9674354 0.2531180
vn 0.0000000 -0.9674354 0.2531180
vn 0.0000000 -0.9674354 0.2531180
vn 0.0000000 0.9716441 -0.2364480
vn 0.0000000 0.9716441 -0.2364481
vn 0.0000000 0.9716441 -0.2364481
vn -0.0000001 0.9716441 -0.2364481
vn -0.0000001 0.9716440 -0.2364481
vn -0.0000001 0.9716440 -0.2364481
vn 0.0000000 0.9716441 -0.2364481
vn 0.0000000 0.9716440 -0.2364481
vn 0.0000000 0.9716442 -0.2364481
vn 0.0000001 0.9716441 -0.2364480
vn 0.0000001 0.9716441 -0.2364480
vn 0.0000001 0.9716441 -0.2364480
vn 0.0000000 0.9716446 -0.2364457
vn 0.0000000 0.9716446 -0.2364457
vn 0.0000000 0.9716446 -0.2364457
vn 0.0000000 0.9716446 -0.2364457
vn 0.0000000 0.9716446 -0.2364457
usemtl Merged_3
f 1/1/1 2/2/2 3/3/3
f 2/2/2 1/1/1 4/4/4
f 3/3/3 5/5/5 1/1/1
f 6/6/6 7/7/7 5/5/5
f 5/5/5 3/3/3 6/6/6
f 8/8/8 6/6/6 3/3/3
f 3/3/3 9/9/9 8/8/8
f 9/9/9 3/3/3 2/2/2
f 2/2/2 10/10/10 9/9/9
f 4/4/4 11/11/11 2/2/2
f 10/10/10 2/2/2 11/11/11
f 11/11/11 4/4/4 12/12/12
f 11/11/11 13/13/13 10/10/10
f 12/12/12 14/14/14 11/11/11
f 13/13/13 11/11/11 14/14/14
f 14/14/14 15/15/15 13/13/13
f 16/16/16 17/17/17 18/18/18
f 19/19/19 20/20/20 21/21/21
f 22/22/22 23/23/23 24/24/24
f 24/24/24 25/25/25 22/22/22
f 26/26/26 22/22/22 25/25/25
f 25/25/25 27/27/27 26/26/26
f 28/28/28 29/29/29 27/27/27
f 27/27/27 25/25/25 28/28/28
f 30/30/30 28/28/28 25/25/25
f 25/25/25 24/24/24 30/30/30
f 31/31/31 30/30/30 24/24/24
f 32/32/32 24/24/24 23/23/23
f 24/24/24 32/32/32 31/31/31
f 33/33/33 31/31/31 32/32/32
f 23/23/23 34/34/34 32/32/32
f 32/32/32 35/35/35 33/33/33
f 35/35/35 32/32/32 34/34/34
f 34/34/34 36/36/36 35/35/35
f 37/37/37 38/38/38 39/39/39
f 40/40/40 41/41/41 39/39/39
f 42/42/42 43/43/43 44/44/44
f 42/42/42 45/45/45 46/46/46
f 47/47/47 48/48/48 49/49/49
f 50/50/50 51/51/51 52/52/52
f 53/53/53 54/54/54 55/55/55
f 56/56/56 57/57/57 53/53/53
f 58/58/58 59/59/59 60/60/60
f 61/61/61 62/62/62 63/63/63
f 64/64/64 65/65/65 61/61/61
f 66/66/66 67/67/67 64/64/64
f 68/68/68 66/66/66 69/69/69
f 69/69/69 70/70/70 68/68/68
f 71/71/71 70/70/70 72/72/72
f 73/73/73 74/74/74 68/68/68
f 75/75/75 76/76/76 77/77/77
f 78/78/78 79/79/79 80/80/80
f 81/81/81 82/82/82 83/83/83
f 84/84/84 85/85/85 86/86/86
f 87/87/87 88/88/88 89/89/89
f 89/89/89 90/90/90 91/91/91
g Merged
v 3.8983982 -15.6309099 0.1609012
v 3.9999981 -15.6238632 0.1871971
v 4.1015983 -15.6309099 0.1609012
v 3.8240218 -15.6501598 0.0890591
v 3.8983982 -15.6309099 0.1609012
v 4.1015983 -15.6309099 0.1609012
v 3.8240218 -15.6501598 0.0890591
v 4.1015983 -15.6309099 0.1609012
v 4.1759744 -15.6501598 0.0890591
v 3.7967980 -15.6764555 -0.0090789
v 3.8240218 -15.6501598 0.0890591
v 4.1759744 -15.6501598 0.0890591
v 3.7967980 -15.6764555 -0.0090789
v 4.1759744 -15.6501598 0.0890591
v 4.2031980 -15.6764555 -0.0090789
v 3.8240218 -15.7027521 -0.1072170
v 3.7967980 -15.6764555 -0.0090789
v 4.2031980 -15.6764555 -0.0090789
v 4.1759744 -15.7027521 -0.1072170
v 3.8983982 -15.7220020 -0.1790590
v 3.8240218 -15.7027521 -0.1072170
v 4.1759744 -15.7027521 -0.1072170
v 3.8983982 -15.7220020 -0.1790590
v 4.1759744 -15.7027521 -0.1072170
v 4.1015983 -15.7220020 -0.1790590
v 3.8983982 -15.7220020 -0.1790590
v 4.1015983 -15.7220020 -0.1790590
v 3.9999981 -15.7290478 -0.2053550
v 4.1015983 -25.0521641 2.6853187
v 3.9999981 -25.0451183 2.7116146
v 3.8983982 -25.0521641 2.6853187
v 4.1759744 -25.0714130 2.6134765
v 4.1015983 -25.0521641 2.6853187
v 3.8983982 -25.0521641 2.6853187
v 3.8983982 -25.0521641 2.6853187
v 3.8240218 -25.0714130 2.6134765
v 4.2031980 -25.0977097 2.5153384
v 4.1759744 -25.0714130 2.6134765
v 3.8240218 -25.0714130 2.6134765
v 4.2031980 -25.0977097 2.5153384
v 3.7967980 -25.0977097 2.5153384
v 4.1759744 -25.1240063 2.4172003
v 4.2031980 -25.0977097 2.5153384
v 3.7967980 -25.0977097 2.5153384
v 4.1759744 -25.1240063 2.4172003
v 3.7967980 -25.0977097 2.5153384
v 3.8240218 -25.1240063 2.4172003
v 4.1015983 -25.1432552 2.3453584
v 4.1759744 -25.1240063 2.4172003
v 3.8240218 -25.1240063 2.4172003
v 4.1015983 -25.1432552 2.3453584
v 3.8983982 -25.1432552 2.3453584
v 4.1015983 -25.1432552 2.3453584
v 3.8983982 -25.1432552 2.3453584
v 3.9999981 -25.1503010 2.3190622
v 3.9999981 -25.0451183 2.7116146
v 3.9999981 -15.6238632 0.1871971
v 3.8983982 -15.6309099 0.1609012
v 4.1015983 -25.0521641 2.6853187
v 3.8983982 -25.0521641 2.6853187
v 4.1015983 -15.6309099 0.1609012
v 3.8240218 -15.6501598 0.0890591
v 4.1759744 -25.0714130 2.6134765
v 3.8240218 -25.0714130 2.6134765
v 4.1759744 -15.6501598 0.0890591
v 3.7967980 -15.6764555 -0.0090789
v 4.2031980 -25.0977097 2.5153384
v 3.7967980 -25.0977097 2.5153384
v 4.2031980 -15.6764555 -0.0090789
v 3.8240218 -15.7027521 -0.1072170
v 4.1759744 -25.1240063 2.4172003
v 3.8240218 -25.1240063 2.4172003
v 4.1759744 -15.7027521 -0.1072170
v 3.8983982 -15.7220020 -0.1790590
v 4.1015983 -25.1432552 2.3453584
v 3.8983982 -25.1432552 2.3453584
v 4.1015983 -15.7220020 -0.1790590
v 3.9999981 -15.7290478 -0.2053550
v 3.9999981 -25.1503010 2.3190622
v 3.9999981 -25.1503010 2.3190622
v 3.9999981 -15.7290478 -0.2053550

vt 0.7950144 0.9001330 0
vt 0.7516267 0.9117586 0
vt 0.7082391 0.9001329 0
vt 0.8267764 0.8683711 0
vt 0.7950144 0.9001330 0
vt 0.7082391 0.9001329 0
vt 0.8267764 0.8683711 0
vt 0.7082391 0.9001329 0
vt 0.6764772 0.8683708 0
vt 0.8384023 0.8249836 0
vt 0.8267764 0.8683711 0
vt 0.6764772 0.8683708 0
vt 0.8384023 0.8249836 0
vt 0.6764772 0.8683708 0
vt 0.6648516 0.8249832 0
vt 0.8267766 0.7815958 0
vt 0.8384023 0.8249836 0
vt 0.6648516 0.8249832 0
vt 0.6764774 0.7815955 0
vt 0.7950147 0.7498338 0
vt 0.8267766 0.7815958 0
vt 0.6764774 0.7815955 0
vt 0.7950147 0.7498338 0
vt 0.6764774 0.7815955 0
vt 0.7082394 0.7498336 0
vt 0.7950147 0.7498338 0
vt 0.7082394 0.7498336 0
vt 0.7516271 0.7382080 0
vt 0.3433879 0.7680934 0
vt 0.3000003 0.7797191 0
vt 0.2566125 0.7680934 0
vt 0.3751499 0.7363314 0
vt 0.3433879 0.7680934 0
vt 0.2566125 0.7680934 0
vt 0.2566125 0.7680934 0
vt 0.2248505 0.7363314 0
vt 0.3867756 0.6929438 0
vt 0.3751499 0.7363314 0
vt 0.2248505 0.7363314 0
vt 0.3867756 0.6929438 0
vt 0.2132248 0.6929438 0
vt 0.3751499 0.6495560 0
vt 0.3867756 0.6929438 0
vt 0.2132248 0.6929438 0
vt 0.3751499 0.6495560 0
vt 0.2132248 0.6929438 0
vt 0.2248505 0.6495560 0
vt 0.3433878 0.6177940 0
vt 0.3751499 0.6495560 0
vt 0.2248505 0.6495560 0
vt 0.3433878 0.6177940 0
vt 0.2566124 0.6177940 0
vt 0.3433878 0.6177940 0
vt 0.2566124 0.6177940 0
vt 0.3000001 0.6061682 0
vt 3.8540218 0.2494602 0
vt -0.0000967 0.2494602 0
vt -0.0000967 0.2078866 0
vt 3.8540218 0.2910342 0
vt 3.8540218 0.2078866 0
vt -0.0000967 0.2910342 0
vt -0.0000967 0.1663157 0
vt 3.8540218 0.3326086 0
vt 3.8540218 0.1663157 0
vt -0.0000967 0.3326086 0
vt -0.0000967 0.1247458 0
vt 3.8540218 0.3741809 0
vt 3.8540218 0.1247458 0
vt -0.0000967 0.3741809 0
vt -0.0000967 0.0831771 0
vt 3.8540218 0.4157503 0
vt 3.8540218 0.0831771 0
vt -0.0000967 0.4157503 0
vt -0.0000967 0.0416105 0
vt 3.8540218 0.4573169 0
vt 3.8540218 0.0416105 0
vt -0.0000967 0.4573169 0
vt -0.0000967 0.0000460 0
vt 3.8540218 0.0000460 0
vt 3.8540218 0.4988817 0
vt -0.0000967 0.4988817 0

vn 0.0000000 0.9659210 -0.2588367
vn 0.0000000 0.9659210 -0.2588367
vn 0.0000000 0.9659210 -0.2588367
vn 0.0000000 0.9659262 -0.2588173
vn 0.0000000 0.9659262 -0.2588173
vn 0.0000000 0.9659262 -0.2588173
vn 0.0000000 0.9659262 -0.2588173
vn 0.0000000 0.9659262 -0.2588173
vn 0.0000000 0.9659262 -0.2588173
vn 0.0000000 0.9659263 -0.2588169
vn 0.0000000 0.9659263 -0.2588169
vn 0.0000000 0.9659263 -0.2588169
vn 0.0000000 0.9659263 -0.2588169
vn 0.0000000 0.9659263 -0.2588169
vn 0.0000000 0.9659263 -0.2588169
vn 0.0000000 0.9659249 -0.2588225
vn 0.0000000 0.9659249 -0.2588224
vn 0.0000000 0.9659249 -0.2588225
vn 0.0000000 0.9659249 -0.2588225
vn 0.0000000 0.9659263 -0.2588171
vn 0.0000000 0.9659263 -0.2588172
vn 0.0000000 0.9659263 -0.2588172
vn 0.0000000 0.9659263 -0.2588172
vn 0.0000000 0.9659263 -0.2588171
vn 0.0000000 0.9659263 -0.2588172
vn 0.0000000 0.9659266 -0.2588157
vn 0.0000000 0.9659266 -0.2588158
vn 0.0000000 0.9659266 -0.2588158
vn 0.0000000 -0.9659261 0.2588177
vn 0.0000000 -0.9659261 0.2588177
vn 0.0000000 -0.9659261 0.2588177
vn 0.0000000 -0.9659258 0.2588192
vn 0.0000000 -0.9659258 0.2588192
vn 0.0000000 -0.9659258 0.2588192
vn 0.0000000 -0.9659258 0.2588192
vn 0.0000000 -0.9659258 0.2588192
vn 0.0000000 -0.9659259 0.2588184
vn 0.0000000 -0.9659259 0.2588184
vn 0.0000000 -0.9659259 0.2588184
vn 0.0000000 -0.9659259 0.2588184
vn 0.0000000 -0.9659259 0.2588184
vn 0.0000000 -0.9659259 0.2588188
vn 0.0000000 -0.9659258 0.2588188
vn 0.0000000 -0.9659259 0.2588188
vn 0.0000000 -0.9659259 0.2588188
vn 0.0000000 -0.9659259 0.2588188
vn 0.0000000 -0.9659259 0.2588188
vn 0.0000000 -0.9659255 0.2588201
vn 0.0000000 -0.9659255 0.2588201
vn 0.0000000 -0.9659255 0.2588201
vn 0.0000000 -0.9659255 0.2588201
vn 0.0000000 -0.9659255 0.2588201
vn 0.0000000 -0.9659261 0.2588177
vn 0.0000000 -0.9659261 0.2588177
vn 0.0000000 -0.9659261 0.2588177
vn -0.2571616 0.2501145 0.9334401
vn 0.2571639 0.2501144 0.9334396
vn -0.2604771 0.2498846 0.9325821
vn 0.2604785 0.2498845 0.9325817
vn -0.7058918 0.1833266 0.6841841
vn 0.7058920 0.1833266 0.6841840
vn -0.7083184 0.1826986 0.6818404
vn 0.7083190 0.1826984 0.6818397
vn -0.9654803 0.0674162 0.2516006
vn 0.9654803 0.0674162 0.2516006
vn -0.9663684 0.0665583 0.2483989
vn 0.9663684 0.0665583 0.2483989
vn -0.9663685 -0.0665582 -0.2483985
vn 0.9663684 -0.0665583 -0.2483989
vn -0.9654804 -0.0674161 -0.2516002
vn 0.9654800 -0.0674164 -0.2516014
vn -0.7083194 -0.1826983 -0.6818394
vn 0.7083200 -0.1826981 -0.6818387
vn -0.7058915 -0.1833267 -0.6841844
vn 0.7058930 -0.1833263 -0.6841831
vn -0.2604756 -0.2498847 -0.9325824
vn 0.2604771 -0.2498846 -0.9325821
vn -0.2571611 -0.2501146 -0.9334403
vn 0.2571616 -0.2501145 -0.9334401
vn 0.2571616 -0.2501145 -0.9334401
vn -0.2571611 -0.2501146 -0.9334403
usemtl Merged_5
f 92/92/92 93/93/93 94/94/94
f 95/95/95 96/96/96 97/97/97
f 98/98/98 99/99/99 100/100/100
f 101/101/101 102/102/102 103/103/103
f 104/104/104 105/105/105 106/106/106
f 107/107/107 108/108/108 109/109/109
f 107/107/107 109/109/109 110/110/110
f 111/111/111 112/112/112 113/113/113
f 114/114/114 115/115/115 116/116/116
f 117/117/117 118/118/118 119/119/119
f 120/120/120 121/121/121 122/122/122
f 123/123/123 124/124/124 125/125/125
f 123/123/123 126/126/126 127/127/127
f 128/128/128 129/129/129 130/130/130
f 131/131/131 130/130/130 132/132/132
f 133/133/133 134/134/134 135/135/135
f 136/136/136 137/137/137 138/138/138
f 139/139/139 140/140/140 141/141/141
f 142/142/142 141/141/141 143/143/143
f 144/144/144 145/145/145 146/146/146
f 147/147/147 148/148/148 149/149/149
f 148/148/148 147/147/147 150/150/150
f 149/149/149 151/151/151 147/147/147
f 150/150/150 152/152/152 148/148/148
f 151/151/151 149/149/149 153/153/153
f 152/152/152 150/150/150 154/154/154
f 153/153/153 155/155/155 151/151/151
f 154/154/154 156/156/156 152/152/152
f 155/155/155 153/153/153 157/157/157
f 156/156/156 154/154/154 158/158/158
f 157/157/157 159/159/159 155/155/155
f 158/158/158 160/160/160 156/156/156
f 159/159/159 157/157/157 161/161/161
f 160/160/160 158/158/158 162/162/162
f 161/161/161 163/163/163 159/159/159
f 162/162/162 164/164/164 160/160/160
f 163/163/163 161/161/161 165/165/165
f 164/164/164 162/162/162 166/166/166
f 165/165/165 167/167/167 163/163/163
f 166/166/166 168/168/168 164/164/164
f 167/167/167 165/165/165 169/169/169
f 169/169/169 170/170/170 167/167/167
f 168/168/168 166/166/166 171/171/171
f 171/171/171 172/172/172 168/168/168
g Merged
v 4.1177502 -23.0656242 1.5680405
v 4.1177506 -24.5917511 1.9577310
v 4.1177506 -24.7587929 1.3035494
v 4.1177497 -23.2326679 0.9138588
v 3.8822443 -24.3871250 1.8210552
v 3.8822446 -22.8359623 1.5475433
v 3.8822448 -22.9532051 0.8826289
v 3.8822443 -24.5043678 1.1561408
v 4.1160254 -22.8064060 1.0964354
v 4.1160250 -21.3184586 1.0964348
v 4.1160250 -21.4928341 1.3322982
v 4.1160259 -22.8064060 1.3322986
v 4.1160207 -19.9541321 0.5775554
v 4.1160207 -19.6574535 0.5775553
v 4.1160207 -19.5669670 0.8522936
v 4.1160207 -19.9541321 0.8522936
v 3.8839769 -19.1094360 0.6982569
v 3.8839769 -19.1094360 0.3501210
v 3.8839769 -19.4475060 0.3501210
v 3.8839769 -19.4475060 0.6982567
v 3.8839748 -21.2364006 0.9182609
v 3.8839746 -21.8647194 0.9182609
v 3.8839746 -21.8647194 1.2216444
v 3.8839748 -21.2364006 1.2216445
v 3.8839769 -17.9186668 0.1239529
v 3.8839769 -17.9186668 0.3711332
v 3.8839769 -17.6413822 0.3711332
v 3.8839769 -17.6413822 0.1239530

vt 0.4687777 0.4956584 0
vt 0.0000000 0.4956584 0
vt 0.0000000 0.2947144 0
vt 0.4687777 0.2947143 0
vt 0.4687777 0.4956584 0
vt 0.0000000 0.4956584 0
vt 0.0000000 0.2947144 0
vt 0.4687777 0.2947143 0
vt 0.4939870 0.6115076 0
vt 0.9899698 0.6115076 0
vt 0.9318442 0.6901287 0
vt 0.4939870 0.6901287 0
vt 0.8421201 0.5015758 0
vt 0.9410133 0.5015758 0
vt 0.9711755 0.5931552 0
vt 0.8421201 0.5931552 0
vt 0.4817624 0.1730773 0
vt 0.4817624 0.0570321 0
vt 0.5944521 0.0570321 0
vt 0.5944522 0.1730773 0
vt 0.7817445 0.3662783 0
vt 0.9911842 0.3662782 0
vt 0.9911842 0.4674062 0
vt 0.7817445 0.4674062 0
vt 0.7011368 0.5047294 0
vt 0.7011368 0.5871229 0
vt 0.6087086 0.5871229 0
vt 0.6087086 0.5047294 0

vn 1.0000000 0.0000003 -0.0000003
vn 1.0000000 0.0000003 -0.0000003
vn 1.0000000 0.0000003 -0.0000003
vn 1.0000000 0.0000003 -0.0000003
vn -0.9999999 0.0000001 -0.0000002
vn -0.9999999 0.0000001 -0.0000002
vn -0.9999999 0.0000001 -0.0000002
vn -0.9999999 0.0000001 -0.0000002
vn 0.9999999 0.0000004 -0.0000004
vn 0.9999999 0.0000004 -0.0000004
vn 0.9999999 0.0000004 -0.0000004
vn 0.9999999 0.0000004 -0.0000004
vn 0.9999999 0.0000004 -0.0000004
vn 0.9999999 0.0000004 -0.0000004
vn 0.9999999 0.0000004 -0.0000004
vn 0.9999999 0.0000004 -0.0000004
vn -0.9999999 0.0000002 0.0000000
vn -0.9999999 0.0000002 0.0000000
vn -0.9999999 0.0000002 0.0000000
vn -0.9999999 0.0000002 0.0000000
vn -0.9999999 0.0000002 0.0000000
vn -0.9999999 0.0000002 0.0000000
vn -0.9999999 0.0000002 0.0000000
vn -0.9999999 0.0000002 0.0000000
vn -0.9999999 0.0000002 0.0000000
vn -0.9999999 0.0000002 0.0000000
vn -0.9999999 0.0000002 0.0000000
vn -0.9999999 0.0000002 0.0000000
usemtl Merged_4
f 173/173/173 174/174/174 175/175/175
f 175/175/175 176/176/176 173/173/173
f 177/177/177 178/178/178 179/179/179
f 179/179/179 180/180/180 177/177/177
f 181/181/181 182/182/182 183/183/183
f 183/183/183 184/184/184 181/181/181
f 185/185/185 186/186/186 187/187/187
f 187/187/187 188/188/188 185/185/185
f 189/189/189 190/190/190 191/191/191
f 191/191/191 192/192/192 189/189/189
f 193/193/193 194/194/194 195/195/195
f 195/195/195 196/196/196 193/193/193
f 197/197/197 198/198/198 199/199/199
f 199/199/199 200/200/200 197/197/197
o $physics_proxy_1
o $physics_proxy_2
