# cgf-converter .obj export version 1.0.0.0
#
mtllib skilightonelight.mtl
o skilightonelight
g skilightonelight
v 0.2076560 0.2420800 -0.2274370
v 0.2076560 0.2639770 0.1175960
v 0.2076560 -0.3319040 -0.2312220
v 0.2076560 -0.4768050 -0.1147240
v 0.2076560 0.0260700 0.2878910
v 0.2076560 -0.4605020 0.1421690
v 0.2076560 -0.2410540 0.2861290
v -0.1401290 0.2381600 -0.2260320
v -0.1401290 -0.3358240 -0.2298170
v -0.1401290 0.2600570 0.1190010
v -0.1401290 0.0221500 0.2892950
v -0.1401290 -0.4807240 -0.1133190
v -0.1401290 -0.2449740 0.2875330
v -0.1401290 -0.4644220 0.1435740
v -0.7860150 -1.4660059 -1.4615229
v 0.7830819 -1.4638380 -1.4588749
v -0.6865480 -1.6402310 -1.4115950
v -0.6873470 -1.8860329 -0.6733580
v 0.6836510 -1.6383380 -1.4092880
v 0.6828520 -1.8841400 -0.6710480
v -0.7870250 -1.7765820 -0.5287320
v 0.7820719 -1.7744130 -0.5260929
v -0.8529200 -1.5217059 -1.5531319
v -0.8540720 -1.8759509 -0.4891900
v 0.8491120 -1.8735960 -0.4863210
v 0.8502629 -1.5193510 -1.5502620
v -1.0006059 -1.4835809 -1.6666479
v 0.9967960 -1.9117199 -0.3728000
v -1.0020030 -1.9139770 -0.3759910
v 0.9981950 -1.4813240 -1.6634539
v -1.0529670 -1.8556110 -0.3038860
v -1.0514669 -1.3936169 -1.6892959
v 1.0490000 -1.3912449 -1.6859410
v 1.0474989 -1.8532380 -0.3005320
v 1.1010990 -1.4158810 -0.1475530
v 1.1010990 -1.4158810 -0.1475530
v -1.1091620 -1.4183780 -0.1510770
v -0.9891870 -0.9886760 -0.1461520
v -1.1091620 -1.4183780 -0.1510770
v 0.9800060 -0.9864520 -0.1430070
v 0.8324460 -0.7223600 -0.2325330
v -0.8417330 -0.7242510 -0.2352060
v -1.1076450 -0.9513919 -1.5514630
v -0.9879380 -0.6046860 -1.2976511
v -1.1076450 -0.9513919 -1.5514630
v -0.9891870 -0.9886760 -0.1461520
v 1.1026160 -0.9488950 -1.5479289
v -0.8417330 -0.7242510 -0.2352060
v -0.8408320 -0.4468450 -1.0670871
v 1.1026160 -0.9488950 -1.5479289
v 0.9800060 -0.9864520 -0.1430070
v 0.9812530 -0.6024600 -1.2945019
v 0.8324460 -0.7223600 -0.2325330
v 0.8333470 -0.4449530 -1.0644120
v 1.1026160 -0.9488950 -1.5479289
v 0.9812530 -0.6024600 -1.2945019
v -0.9879380 -0.6046860 -1.2976511
v -0.8408320 -0.4468450 -1.0670871
v 0.8333470 -0.4449530 -1.0644120
v 0.1576560 -0.6075500 -0.4665730
v 0.1576560 -0.6536930 -0.8595099
v 0.1576560 -0.1813940 -0.5007510
v 0.1576560 -0.2113230 -0.7555919
v 0.1576560 -0.3946390 -0.8802870
v -0.0801290 -0.6066500 -0.4671590
v -0.0801290 -0.6527980 -0.8600990
v -0.0801290 -0.1804970 -0.5013380
v 0.1576560 -0.3946390 -0.8802870
v -0.0801290 -0.3937440 -0.8808750
v -0.0801290 -0.2104240 -0.7561769
v -0.0801290 -0.3937440 -0.8808750
v 0.1576560 -0.2113230 -0.7555919
v -0.0801290 -0.2104240 -0.7561769
v -0.0801290 -0.1804970 -0.5013380
v 0.1576560 -0.1813940 -0.5007510
v -0.0801290 -0.6066500 -0.4671590
v 0.1576560 -0.6075500 -0.4665730
v 0.2076560 -0.2410540 0.2861290
v -0.1401290 -0.2449740 0.2875330
v 0.2076560 -0.4605020 0.1421690
v -0.1401290 -0.4644220 0.1435740
v -0.1401290 0.0221500 0.2892950
v 0.2076560 0.0260700 0.2878910
v -0.1401290 0.2600570 0.1190010
v 0.2076560 0.2639770 0.1175960
v -0.1401290 0.2381600 -0.2260320
v 0.2076560 0.2420800 -0.2274370
v -0.6043760 -0.5204970 -0.5866200
v -0.5274000 -0.5148690 -0.5513610
v -0.5718240 -0.6066740 -0.6087760
v -0.5972740 -0.6446770 -0.5373060
v -0.6386050 -0.4850340 -0.5175490
v -0.4959600 -0.5917420 -0.5738230
v -0.6160550 -0.3686030 -0.6392940
v -0.6240570 -0.3173610 -0.6009670
v -0.5648150 -0.3866080 -0.6045220
v -0.5616300 -0.4794060 -0.4822910
v -0.5214100 -0.6297460 -0.5023530
v -0.5972740 -0.6446770 -0.5373060
v -0.6386050 -0.4850340 -0.5175490
v -0.4868450 -0.2682930 -0.7144550
v -0.4846860 -0.2129920 -0.6814690
v -0.5728170 -0.3353650 -0.5661960
v -0.6240570 -0.3173610 -0.6009670
v -0.4846860 -0.2129920 -0.6814690
v -0.4751580 -0.3023770 -0.6583899
v -0.3289160 -0.2152720 -0.6794730
v -0.3465930 -0.1592460 -0.6507840
v -0.4731550 -0.2470160 -0.6255450
v -0.3465930 -0.1592460 -0.6507840
v -0.3532100 -0.2461620 -0.6292170
v -0.2579140 -0.1521870 -0.4820010
v -0.2884150 -0.1018860 -0.4555790
v -0.3710840 -0.1896950 -0.6005270
v -0.2884150 -0.1018860 -0.4555790
v -0.2915850 -0.1923450 -0.4444210
v -0.2918900 -0.2478640 -0.2146550
v -0.2798470 -0.1848760 -0.2078640
v -0.3220860 -0.1420440 -0.4179990
v -0.1753110 -0.2814110 -0.0524930
v -0.2798470 -0.1848760 -0.2078640
v -0.3401530 -0.2432230 -0.1721390
v -0.3281100 -0.1802340 -0.1653450
v -0.1753110 -0.2814110 -0.0524930
v -0.1919430 -0.3429380 -0.0623150
v -0.1953620 -0.2857510 0.0086450
v -0.0898490 -0.3129620 -0.0228140
v -0.0878820 -0.3250950 0.0404910
v -0.1118750 -0.3840170 0.0299440
v -0.1138420 -0.3718840 -0.0333610
v -0.0898490 -0.3129620 -0.0228140
v -0.2119940 -0.3472780 -0.0011780
v 0.7749569 -0.6781810 -0.2770310
v 0.7752350 -0.4331270 -1.0062169
v -0.7840560 -0.6785360 -0.2807900
v 0.8324460 -0.7223600 -0.2325330
v -0.8417330 -0.7242510 -0.2352060
v 0.8333470 -0.4449530 -1.0644120
v -0.7837780 -0.4334880 -1.0099601
v -0.8408320 -0.4468450 -1.0670871
v -0.0501290 -0.3509880 -0.0993730
v -0.0501290 -0.4004940 -0.6124140
v 0.1276560 -0.3452080 -0.1047580
v 0.1276560 -0.3947150 -0.6177990
v -0.0501290 -0.2490870 -0.6261990
v -0.0501290 -0.1995810 -0.1131580
v 0.1276560 -0.1938010 -0.1185430
v 0.1276560 -0.2433070 -0.6315840
v 0.1276560 -0.3452080 -0.1047580
v 0.1276560 -0.3947150 -0.6177990
v -0.1401290 -0.4644220 0.1435740
v -0.1401290 -0.4807240 -0.1133190
v 0.2076560 -0.4605020 0.1421690
v 0.2076560 -0.4768050 -0.1147240
v -0.1401290 -0.3358240 -0.2298170
v 0.2076560 -0.3319040 -0.2312220
v -0.1401290 0.2381600 -0.2260320
v 0.2076560 0.2420800 -0.2274370

vt 0.3664000 0.9464000 0
vt 0.3664000 0.9802000 0
vt 0.3276000 0.9464000 0
vt 0.3173000 0.9579000 0
vt 0.3496000 0.9970000 0
vt 0.3173000 0.9830000 0
vt 0.3315000 0.9970000 0
vt 0.3663000 0.9464000 0
vt 0.3275000 0.9464000 0
vt 0.3663000 0.9802000 0
vt 0.3495000 0.9970000 0
vt 0.3172000 0.9579000 0
vt 0.3314000 0.9970000 0
vt 0.3172000 0.9830000 0
vt 0.4026000 0.7396000 0
vt 0.5548000 0.7395000 0
vt 0.4151000 0.7539000 0
vt 0.4149000 0.8242000 0
vt 0.5422000 0.7538000 0
vt 0.5420000 0.8241000 0
vt 0.4022000 0.8385000 0
vt 0.5545000 0.8384000 0
vt 0.3942000 0.7304000 0
vt 0.3937000 0.8478000 0
vt 0.5629000 0.8476000 0
vt 0.5633000 0.7302000 0
vt 0.3791000 0.7182000 0
vt 0.5780000 0.8598000 0
vt 0.3786000 0.8600000 0
vt 0.5784000 0.7180000 0
vt 0.3714000 0.8679000 0
vt 0.3720000 0.7104000 0
vt 0.5856000 0.7101000 0
vt 0.5851000 0.8677000 0
vt 0.5907000 0.9148000 0
vt 0.6367000 0.8700000 0
vt 0.3658000 0.9151000 0
vt 0.3781000 0.9588000 0
vt 0.3190000 0.8701000 0
vt 0.5785000 0.9586000 0
vt 0.5635000 0.9870000 0
vt 0.3932000 0.9871000 0
vt 0.3204000 0.7078000 0
vt 0.2725000 0.7211000 0
vt 0.3664000 0.6632000 0
vt 0.2704000 0.8561000 0
vt 0.5910000 0.6630000 0
vt 0.2393000 0.8372000 0
vt 0.2421000 0.7391000 0
vt 0.6380000 0.7076000 0
vt 0.6847000 0.8566000 0
vt 0.6867000 0.7215000 0
vt 0.7150000 0.8386000 0
vt 0.7177000 0.7404000 0
vt 0.5910000 0.6630000 0
vt 0.5787000 0.6193000 0
vt 0.3786000 0.6196000 0
vt 0.3936000 0.5912000 0
vt 0.5637000 0.5910000 0
vt 0.5996000 0.9567000 0
vt 0.6377000 0.9567000 0
vt 0.5996000 0.9908000 0
vt 0.6243000 0.9908000 0
vt 0.6377000 0.9774000 0
vt 0.5996000 0.9340000 0
vt 0.6377000 0.9340000 0
vt 0.5996000 0.8998000 0
vt 0.6585000 0.9567000 0
vt 0.6377000 0.9132000 0
vt 0.6243000 0.8998000 0
vt 0.6585000 0.9340000 0
vt 0.6774000 0.9567000 0
vt 0.6774000 0.9340000 0
vt 0.7022000 0.9340000 0
vt 0.7022000 0.9567000 0
vt 0.7363000 0.9340000 0
vt 0.7363000 0.9567000 0
vt 0.2777000 0.8913000 0
vt 0.2341000 0.8913000 0
vt 0.2777000 0.8633000 0
vt 0.2341000 0.8633000 0
vt 0.2341000 0.9167000 0
vt 0.2777000 0.9167000 0
vt 0.2341000 0.9502000 0
vt 0.2777000 0.9502000 0
vt 0.2341000 0.9977000 0
vt 0.2777000 0.9977000 0
vt 0.6521000 0.9753000 0
vt 0.6522000 0.9787000 0
vt 0.6466000 0.9769000 0
vt 0.6444000 0.9751000 0
vt 0.6513000 0.9726000 0
vt 0.6473000 0.9788000 0
vt 0.6627000 0.9745000 0
vt 0.6628000 0.9714000 0
vt 0.6629000 0.9781000 0
vt 0.6519000 0.9812000 0
vt 0.6462000 0.9807000 0
vt 0.6458000 0.9828000 0
vt 0.6519000 0.9837000 0
vt 0.6731000 0.9746000 0
vt 0.6736000 0.9711000 0
vt 0.6631000 0.9817000 0
vt 0.6628000 0.9847000 0
vt 0.6730000 0.9861000 0
vt 0.6725000 0.9783000 0
vt 0.6860000 0.9747000 0
vt 0.6871000 0.9705000 0
vt 0.6728000 0.9822000 0
vt 0.6864000 0.9880000 0
vt 0.6871000 0.9789000 0
vt 0.7021000 0.9747000 0
vt 0.7027000 0.9698000 0
vt 0.6882000 0.9839000 0
vt 0.7020000 0.9906000 0
vt 0.7015000 0.9796000 0
vt 0.7235000 0.9751000 0
vt 0.7225000 0.9695000 0
vt 0.7020000 0.9852000 0
vt 0.7485000 0.9694000 0
vt 0.7223000 0.9913000 0
vt 0.7240000 0.9805000 0
vt 0.7230000 0.9858000 0
vt 0.7487000 0.9915000 0
vt 0.7489000 0.9754000 0
vt 0.7509000 0.9862000 0
vt 0.7594000 0.9927000 0
vt 0.7619000 0.9864000 0
vt 0.7610000 0.9800000 0
vt 0.7578000 0.9744000 0
vt 0.7575000 0.9683000 0
vt 0.7512000 0.9807000 0
vt 0.9851000 0.6046000 0
vt 0.9851000 0.6813000 0
vt 0.8295000 0.6050000 0
vt 0.9910000 0.5986000 0
vt 0.8235000 0.5987000 0
vt 0.9911000 0.6870000 0
vt 0.8295000 0.6816000 0
vt 0.8236000 0.6872000 0
vt 0.7056000 0.9224000 0
vt 0.7056000 0.8744000 0
vt 0.7201000 0.9224000 0
vt 0.7201000 0.8744000 0
vt 0.6914000 0.8745000 0
vt 0.6914000 0.9224000 0
vt 0.6769000 0.9224000 0
vt 0.6769000 0.8745000 0
vt 0.6627000 0.9224000 0
vt 0.6627000 0.8744000 0
vt 0.2823000 0.9556000 0
vt 0.2823000 0.9304000 0
vt 0.3134000 0.9556000 0
vt 0.3134000 0.9304000 0
vt 0.2823000 0.9150000 0
vt 0.3134000 0.9150000 0
vt 0.2823000 0.8762000 0
vt 0.3134000 0.8762000 0

vn 0.3544288 0.5530317 -0.7540133
vn 0.8024048 0.5854416 0.1157788
vn 0.6140401 -0.0928750 -0.7837914
vn 0.7951965 -0.4549313 -0.4008739
vn 0.5555037 0.3564835 0.7512223
vn 0.5795981 -0.7166978 0.3878275
vn 0.0989557 -0.1715292 0.9801966
vn -0.2964388 0.6904100 -0.6598923
vn -0.6591297 -0.3539265 -0.6635391
vn -0.6036270 0.6074026 0.5164265
vn -0.7945794 0.1013522 0.5986410
vn -0.6774335 -0.7332116 -0.0590291
vn -0.6445591 -0.3078355 0.6998435
vn -0.3057059 -0.7753519 0.5526057
vn -0.1211946 -0.6188452 -0.7761073
vn 0.2722182 -0.9368910 -0.2193909
vn -0.2078396 -0.6065571 -0.7673924
vn -0.3687446 -0.9290454 0.0300315
vn 0.0610174 -0.8239244 -0.5634053
vn 0.5893713 -0.7777012 -0.2186825
vn 0.0531828 -0.8687154 -0.4924480
vn -0.1098626 -0.9932727 0.0366004
vn 0.1570923 -0.9359118 0.3152633
vn 0.2671294 -0.8608860 -0.4330325
vn -0.2486718 -0.6569050 -0.7117851
vn -0.3017197 -0.9072208 -0.2931136
vn -0.2406254 -0.9184999 -0.3137786
vn 0.2072506 -0.9726492 -0.1048838
vn -0.0176856 -0.9996208 -0.0211043
vn 0.0166603 -0.6923398 -0.7213792
vn -0.6244600 -0.6549196 0.4255938
vn -0.5330877 -0.2426376 -0.8105211
vn 0.8194413 -0.2339731 -0.5232329
vn 0.4899149 -0.6868416 0.5368724
vn 0.5839458 -0.1475532 0.7982702
vn 0.5839458 -0.1475532 0.7982702
vn -0.9193534 0.0014745 0.3934298
vn -0.1830537 0.2612329 0.9477598
vn -0.9193534 0.0014745 0.3934298
vn 0.8365979 0.3691024 0.4048052
vn 0.4624877 0.7367215 0.4933016
vn -0.4270445 0.7465693 0.5101640
vn -0.3600215 0.4420719 -0.8215576
vn -0.8439296 0.5363107 -0.0123910
vn -0.3600215 0.4420719 -0.8215576
vn -0.1830537 0.2612329 0.9477598
vn 0.8204122 0.3876134 -0.4203327
vn -0.4270445 0.7465693 0.5101640
vn -0.2655099 0.9532732 -0.1441340
vn 0.8204122 0.3876134 -0.4203327
vn 0.8365979 0.3691024 0.4048052
vn 0.2915668 0.7971386 -0.5287330
vn 0.4624877 0.7367215 0.4933016
vn 0.2251450 0.9652595 -0.1326039
vn 0.8204122 0.3876134 -0.4203327
vn 0.2915668 0.7971386 -0.5287330
vn -0.8439296 0.5363107 -0.0123910
vn -0.2655099 0.9532732 -0.1441340
vn 0.2251450 0.9652595 -0.1326039
vn 0.5129262 -0.3202532 0.7964574
vn 0.7189755 -0.6857063 -0.1134945
vn 0.7770324 0.2811631 0.5631766
vn 0.5667841 0.7042972 -0.4274589
vn 0.1030722 0.0871887 -0.9908451
vn -0.2351735 -0.6935996 0.6808913
vn -0.7455672 -0.1993527 -0.6359150
vn -0.7430254 0.6351535 0.2109345
vn 0.1030722 0.0871887 -0.9908451
vn -0.6745569 0.3131703 -0.6685037
vn -0.2510283 0.8280972 -0.5012383
vn -0.6745569 0.3131703 -0.6685037
vn 0.5667841 0.7042972 -0.4274589
vn -0.2510283 0.8280972 -0.5012383
vn -0.7430254 0.6351535 0.2109345
vn 0.7770324 0.2811631 0.5631766
vn -0.2351735 -0.6935996 0.6808913
vn 0.5129262 -0.3202532 0.7964574
vn 0.0989557 -0.1715292 0.9801966
vn -0.6445591 -0.3078355 0.6998435
vn 0.5795981 -0.7166978 0.3878275
vn -0.3057059 -0.7753519 0.5526057
vn -0.7945794 0.1013522 0.5986410
vn 0.5555037 0.3564835 0.7512223
vn -0.6036270 0.6074026 0.5164265
vn 0.8024048 0.5854416 0.1157788
vn -0.2964388 0.6904100 -0.6598923
vn 0.3544288 0.5530317 -0.7540133
vn 0.2114955 -0.1778814 -0.9610555
vn 0.7140259 0.3576017 -0.6019037
vn -0.5027395 0.0564777 -0.8625908
vn -0.8144727 -0.2764969 0.5100821
vn -0.9866120 -0.0285042 0.1605749
vn 0.9376681 0.3470282 -0.0187012
vn -0.6270812 -0.3918177 -0.6732369
vn -0.8141521 0.5709296 -0.1058097
vn 0.8091061 -0.4248786 -0.4059869
vn 0.6294357 0.2317773 0.7416804
vn 0.0677556 -0.1141369 0.9911518
vn -0.8144727 -0.2764969 0.5100821
vn -0.9866120 -0.0285042 0.1605749
vn -0.2097297 -0.2625154 -0.9418593
vn -0.3029875 0.9529461 -0.0096036
vn 0.3529947 0.4095322 0.8412360
vn -0.8141521 0.5709296 -0.1058097
vn -0.3029875 0.9529461 -0.0096036
vn 0.5372090 -0.7973863 0.2749208
vn 0.5085622 -0.2052488 -0.8362042
vn 0.0426736 0.9969125 -0.0659120
vn -0.0055480 0.1494956 0.9887468
vn 0.0426736 0.9969125 -0.0659120
vn 0.0521176 -0.8840116 0.4645506
vn 0.9328866 -0.1913019 -0.3051657
vn 0.0370370 0.9940532 0.1024035
vn -0.8497140 0.1647452 0.5008443
vn 0.0370370 0.9940532 0.1024035
vn -0.4423320 -0.8958659 -0.0420308
vn 0.8925283 -0.3534962 -0.2800599
vn 0.1723534 0.9840662 -0.0436789
vn -0.8249875 0.4935462 0.2753316
vn 0.6612712 0.5200903 -0.5405796
vn 0.1723534 0.9840662 -0.0436789
vn -0.7987962 -0.5902022 0.1165589
vn -0.0195868 0.9561149 0.2923365
vn 0.6612712 0.5200903 -0.5405796
vn 0.1342472 -0.7674850 -0.6268528
vn -0.3382235 0.5509627 0.7629188
vn 0.3755312 0.9222188 -0.0921342
vn -0.1371935 0.3692086 0.9191642
vn -0.4236555 -0.5576051 0.7138574
vn 0.0690353 -0.5885516 -0.8055067
vn 0.3755312 0.9222188 -0.0921342
vn -0.4803721 -0.8700588 0.1106362
vn 0.0245888 0.8250659 0.5645011
vn 0.1165127 0.9854526 0.1237251
vn -0.0622616 0.8697944 0.4894702
vn 0.4624877 0.7367215 0.4933016
vn -0.4270445 0.7465693 0.5101640
vn 0.2251450 0.9652595 -0.1326039
vn -0.3110111 0.9313019 0.1896018
vn -0.2655099 0.9532732 -0.1441340
vn -0.8200694 -0.5696184 0.0549655
vn -0.5456444 -0.8341423 0.0804910
vn 0.8411304 -0.5383319 0.0519473
vn 0.2542888 -0.9626567 0.0928936
vn -0.5711718 0.8170354 -0.0788400
vn -0.9683934 0.2482746 -0.0239573
vn 0.0670040 0.9931396 -0.0958332
vn 0.9931254 0.1165137 -0.0112430
vn 0.8411304 -0.5383319 0.0519473
vn 0.2542888 -0.9626567 0.0928936
vn -0.3057059 -0.7753519 0.5526057
vn -0.6774335 -0.7332116 -0.0590291
vn 0.5795981 -0.7166978 0.3878275
vn 0.7951965 -0.4549313 -0.4008739
vn -0.6591297 -0.3539265 -0.6635391
vn 0.6140401 -0.0928750 -0.7837914
vn -0.2964388 0.6904100 -0.6598923
vn 0.3544288 0.5530317 -0.7540133
usemtl SkiLight_01
f 1/1/1 2/2/2 3/3/3
f 4/4/4 3/3/3 2/2/2
f 2/2/2 5/5/5 4/4/4
f 6/6/6 4/4/4 5/5/5
f 5/5/5 7/7/7 6/6/6
f 8/8/8 9/9/9 10/10/10
f 11/11/11 10/10/10 9/9/9
f 9/9/9 12/12/12 11/11/11
f 13/13/13 11/11/11 12/12/12
f 12/12/12 14/14/14 13/13/13
f 15/15/15 16/16/16 17/17/17
f 17/17/17 18/18/18 15/15/15
f 19/19/19 17/17/17 16/16/16
f 17/17/17 19/19/19 18/18/18
f 19/19/19 16/16/16 20/20/20
f 20/20/20 18/18/18 19/19/19
f 21/21/21 15/15/15 18/18/18
f 20/20/20 22/22/22 18/18/18
f 21/21/21 18/18/18 22/22/22
f 22/22/22 20/20/20 16/16/16
f 15/15/15 21/21/21 23/23/23
f 15/15/15 23/23/23 16/16/16
f 21/21/21 22/22/22 24/24/24
f 24/24/24 23/23/23 21/21/21
f 22/22/22 16/16/16 25/25/25
f 25/25/25 24/24/24 22/22/22
f 26/26/26 16/16/16 23/23/23
f 26/26/26 25/25/25 16/16/16
f 23/23/23 24/24/24 27/27/27
f 23/23/23 27/27/27 26/26/26
f 25/25/25 28/28/28 24/24/24
f 25/25/25 26/26/26 28/28/28
f 29/29/29 27/27/27 24/24/24
f 29/29/29 24/24/24 28/28/28
f 30/30/30 26/26/26 27/27/27
f 30/30/30 28/28/28 26/26/26
f 29/29/29 31/31/31 27/27/27
f 29/29/29 28/28/28 31/31/31
f 27/27/27 32/32/32 30/30/30
f 32/32/32 27/27/27 31/31/31
f 30/30/30 33/33/33 28/28/28
f 33/33/33 30/30/30 32/32/32
f 34/34/34 31/31/31 28/28/28
f 34/34/34 28/28/28 33/33/33
f 34/34/34 35/35/35 31/31/31
f 34/34/34 33/33/33 36/36/36
f 37/37/37 31/31/31 35/35/35
f 37/37/37 35/35/35 38/38/38
f 31/31/31 39/39/39 32/32/32
f 40/40/40 38/38/38 35/35/35
f 40/40/40 41/41/41 38/38/38
f 42/42/42 38/38/38 41/41/41
f 43/43/43 32/32/32 39/39/39
f 43/43/43 39/39/39 44/44/44
f 32/32/32 45/45/45 33/33/33
f 46/46/46 44/44/44 39/39/39
f 47/47/47 33/33/33 45/45/45
f 46/46/46 48/48/48 44/44/44
f 49/49/49 44/44/44 48/48/48
f 50/50/50 36/36/36 33/33/33
f 36/36/36 50/50/50 51/51/51
f 52/52/52 51/51/51 50/50/50
f 51/51/51 52/52/52 53/53/53
f 54/54/54 53/53/53 52/52/52
f 55/55/55 45/45/45 56/56/56
f 57/57/57 56/56/56 45/45/45
f 57/57/57 58/58/58 56/56/56
f 59/59/59 56/56/56 58/58/58
f 60/60/60 61/61/61 62/62/62
f 63/63/63 62/62/62 61/61/61
f 61/61/61 64/64/64 63/63/63
f 60/60/60 65/65/65 61/61/61
f 66/66/66 61/61/61 65/65/65
f 65/65/65 67/67/67 66/66/66
f 61/61/61 66/66/66 68/68/68
f 69/69/69 66/66/66 67/67/67
f 67/67/67 70/70/70 69/69/69
f 71/71/71 68/68/68 66/66/66
f 68/68/68 71/71/71 72/72/72
f 73/73/73 72/72/72 71/71/71
f 73/73/73 74/74/74 72/72/72
f 75/75/75 72/72/72 74/74/74
f 74/74/74 76/76/76 75/75/75
f 77/77/77 75/75/75 76/76/76
f 78/78/78 79/79/79 80/80/80
f 81/81/81 80/80/80 79/79/79
f 79/79/79 78/78/78 82/82/82
f 83/83/83 82/82/82 78/78/78
f 82/82/82 83/83/83 84/84/84
f 85/85/85 84/84/84 83/83/83
f 84/84/84 85/85/85 86/86/86
f 87/87/87 86/86/86 85/85/85
f 88/88/88 89/89/89 90/90/90
f 91/91/91 92/92/92 90/90/90
f 88/88/88 90/90/90 92/92/92
f 93/93/93 90/90/90 89/89/89
f 88/88/88 92/92/92 94/94/94
f 95/95/95 94/94/94 92/92/92
f 89/89/89 88/88/88 96/96/96
f 94/94/94 96/96/96 88/88/88
f 89/89/89 97/97/97 93/93/93
f 89/89/89 96/96/96 97/97/97
f 98/98/98 93/93/93 97/97/97
f 98/98/98 97/97/97 99/99/99
f 100/100/100 99/99/99 97/97/97
f 94/94/94 95/95/95 101/101/101
f 94/94/94 101/101/101 96/96/96
f 102/102/102 101/101/101 95/95/95
f 97/97/97 103/103/103 100/100/100
f 103/103/103 97/97/97 96/96/96
f 104/104/104 100/100/100 103/103/103
f 104/104/104 103/103/103 105/105/105
f 106/106/106 96/96/96 101/101/101
f 96/96/96 106/106/106 103/103/103
f 101/101/101 102/102/102 107/107/107
f 101/101/101 107/107/107 106/106/106
f 108/108/108 107/107/107 102/102/102
f 109/109/109 105/105/105 103/103/103
f 109/109/109 103/103/103 106/106/106
f 105/105/105 109/109/109 110/110/110
f 111/111/111 106/106/106 107/107/107
f 106/106/106 111/111/111 109/109/109
f 107/107/107 108/108/108 112/112/112
f 107/107/107 112/112/112 111/111/111
f 113/113/113 112/112/112 108/108/108
f 114/114/114 110/110/110 109/109/109
f 114/114/114 109/109/109 111/111/111
f 110/110/110 114/114/114 115/115/115
f 116/116/116 111/111/111 112/112/112
f 111/111/111 116/116/116 114/114/114
f 112/112/112 113/113/113 117/117/117
f 112/112/112 117/117/117 116/116/116
f 118/118/118 117/117/117 113/113/113
f 119/119/119 115/115/115 114/114/114
f 119/119/119 114/114/114 116/116/116
f 118/118/118 120/120/120 117/117/117
f 115/115/115 119/119/119 121/121/121
f 122/122/122 116/116/116 117/117/117
f 116/116/116 122/122/122 119/119/119
f 123/123/123 121/121/121 119/119/119
f 123/123/123 119/119/119 122/122/122
f 121/121/121 123/123/123 124/124/124
f 125/125/125 117/117/117 120/120/120
f 117/117/117 125/125/125 122/122/122
f 126/126/126 124/124/124 123/123/123
f 123/123/123 122/122/122 126/126/126
f 124/124/124 126/126/126 127/127/127
f 128/128/128 127/127/127 126/126/126
f 128/128/128 126/126/126 129/129/129
f 125/125/125 120/120/120 130/130/130
f 131/131/131 130/130/130 120/120/120
f 132/132/132 129/129/129 126/126/126
f 129/129/129 132/132/132 130/130/130
f 132/132/132 126/126/126 122/122/122
f 125/125/125 130/130/130 132/132/132
f 132/132/132 122/122/122 125/125/125
f 133/133/133 134/134/134 135/135/135
f 133/133/133 135/135/135 136/136/136
f 133/133/133 136/136/136 134/134/134
f 137/137/137 136/136/136 135/135/135
f 138/138/138 134/134/134 136/136/136
f 135/135/135 139/139/139 137/137/137
f 139/139/139 135/135/135 134/134/134
f 140/140/140 137/137/137 139/139/139
f 138/138/138 140/140/140 134/134/134
f 139/139/139 134/134/134 140/140/140
f 141/141/141 142/142/142 143/143/143
f 144/144/144 143/143/143 142/142/142
f 142/142/142 141/141/141 145/145/145
f 146/146/146 145/145/145 141/141/141
f 146/146/146 147/147/147 145/145/145
f 148/148/148 145/145/145 147/147/147
f 147/147/147 149/149/149 148/148/148
f 150/150/150 148/148/148 149/149/149
f 151/151/151 152/152/152 153/153/153
f 154/154/154 153/153/153 152/152/152
f 152/152/152 155/155/155 154/154/154
f 156/156/156 154/154/154 155/155/155
f 155/155/155 157/157/157 156/156/156
f 158/158/158 156/156/156 157/157/157
