# cgf-converter .obj export version 1.0.0.0
#
mtllib Bush_01.mtl
o Merged
g Merged
v 0.3364280 0.5925812 18.5809078
v 3.4831989 3.4028325 4.3453116
v -1.9335420 3.8967843 13.8811321
v 4.8713946 -3.8369594 9.9512663
v -3.8707707 9.7041826 4.6190844
v 7.3758798 -6.5782809 3.3200274
v 2.6991808 2.4176409 -0.0273682
v -0.3228760 -0.7302039 -4.4065781
v -7.2725701 4.8782849 0.1204698
v 0.1768460 0.9548852 18.5618210
v -4.3258176 1.1903007 4.4153557
v -1.1532650 -3.0355585 14.0379314
v 0.6732390 6.9306312 9.6904316
v -4.7759390 -8.4661970 5.0574713
v 1.1338400 10.3427906 2.9150629
v -3.1758051 1.0139580 0.0162657
v 1.0543029 0.3966302 -4.4496412
v 1.0082849 -8.3590584 0.4066284
v -0.9707950 2.0147223 18.4638329
v -0.4989390 -3.8045681 4.8122716
v 3.1785958 0.8948084 14.0268555
v -6.9506216 0.7219525 9.6758919
v 9.1090841 -2.6819022 5.3492575
v -10.3928242 -0.0059221 2.9392724
v -0.5046690 -3.0681179 0.3219235
v -0.5566760 0.7587641 -4.5331249
v 8.0984135 2.5423610 0.1738649

vt 0.4456000 1.0108000 0
vt 0.5030000 0.4029000 0
vt 0.7744000 0.9216000 0
vt 0.0596000 0.6455000 0
vt 0.9689000 0.3992000 0
vt 0.0031000 0.1958000 0
vt 0.4939000 0.2069000 0
vt 0.4728000 -0.0510000 0
vt 0.8557000 0.1024000 0
vt 0.4456000 1.0108000 0
vt 0.5030000 0.4029000 0
vt 0.7744000 0.9216000 0
vt 0.0596000 0.6455000 0
vt 0.9689000 0.3992000 0
vt 0.0031000 0.1958000 0
vt 0.4939000 0.2069000 0
vt 0.4728000 -0.0510000 0
vt 0.8557000 0.1024000 0
vt 0.4456000 1.0108000 0
vt 0.5030000 0.4029000 0
vt 0.7744000 0.9216000 0
vt 0.0596000 0.6455000 0
vt 0.9689000 0.3992000 0
vt 0.0031000 0.1958000 0
vt 0.4939000 0.2069000 0
vt 0.4728000 -0.0510000 0
vt 0.8557000 0.1024000 0

vn 0.6699821 0.6860963 0.2835416
vn 0.8441674 0.5224585 0.1200770
vn 0.6081756 0.7317978 0.3075621
vn 0.9035488 0.3568780 0.2371442
vn 0.3979740 0.8011879 -0.4468945
vn 0.9160339 0.3037279 -0.2619756
vn 0.6992251 0.5487854 -0.4581689
vn 0.3162478 0.6181586 -0.7196299
vn 0.0480521 0.6627472 -0.7472998
vn -0.9455867 0.1186998 0.3029452
vn -0.9274750 0.3504440 0.1303035
vn -0.9431038 0.0427926 0.3297331
vn -0.8303829 0.5031275 0.2394303
vn -0.8875439 -0.1934976 -0.4181202
vn -0.8085101 0.5271323 -0.2616155
vn -0.8736262 0.1985616 -0.4442413
vn -0.6997385 -0.1558793 -0.6971855
vn -0.5709555 -0.3959053 -0.7192140
vn 0.0306839 -0.9190927 0.3928449
vn -0.2010404 -0.9539190 0.2227580
vn 0.1052681 -0.9022641 0.4181363
vn -0.3670327 -0.8717794 0.3244803
vn 0.3299578 -0.8825256 -0.3350765
vn -0.3941637 -0.9020364 -0.1759695
vn -0.0594517 -0.9323956 -0.3565166
vn 0.2634234 -0.7304913 -0.6300717
vn 0.4803482 -0.5686154 -0.6677889
usemtl Bush01
f 1/1/1 2/2/2 3/3/3
f 4/4/4 2/2/2 1/1/1
f 2/2/2 5/5/5 3/3/3
f 2/2/2 4/4/4 6/6/6
f 2/2/2 6/6/6 7/7/7
f 2/2/2 7/7/7 5/5/5
f 8/8/8 7/7/7 6/6/6
f 8/8/8 5/5/5 7/7/7
f 5/5/5 8/8/8 9/9/9
f 10/10/10 11/11/11 12/12/12
f 13/13/13 11/11/11 10/10/10
f 11/11/11 14/14/14 12/12/12
f 11/11/11 13/13/13 15/15/15
f 11/11/11 15/15/15 16/16/16
f 11/11/11 16/16/16 14/14/14
f 17/17/17 16/16/16 15/15/15
f 17/17/17 14/14/14 16/16/16
f 14/14/14 17/17/17 18/18/18
f 19/19/19 20/20/20 21/21/21
f 22/22/22 20/20/20 19/19/19
f 20/20/20 23/23/23 21/21/21
f 20/20/20 22/22/22 24/24/24
f 20/20/20 24/24/24 25/25/25
f 20/20/20 25/25/25 23/23/23
f 26/26/26 25/25/25 24/24/24
f 26/26/26 23/23/23 25/25/25
f 23/23/23 26/26/26 27/27/27
