# cgf-converter .obj export version 1.0.0.0
#
mtllib lo2park_segment3_base.mtl
o Merged
g Merged
v 21.6146526 -22.6469059 -0.6807181
v 0.0000000 -22.6509418 -0.6807181
v 0.0000000 -23.3678017 -0.7418091
v 21.6641102 -23.3653088 -0.6889592
v -21.6146526 -22.6469288 -0.6807181
v 21.8732510 -23.3735046 -0.7465564
v -21.6641102 -23.3653088 -0.6889595
v 0.0000000 -24.2595997 -0.9337524
v 21.3239708 -3.7607384 -0.6807181
v 21.7609825 -24.2583885 -0.9081181
v 21.8235435 -22.6604366 -0.6460398
v 21.9701996 -24.2594872 -0.9664923
v 22.0006790 -23.3981533 -0.9205679
v 22.0978527 -24.2628098 -1.1422031
v 21.5331783 -3.7607982 -0.7528479
v 24.6163006 -24.3913765 -7.9369988
v 21.9502316 -22.7011185 -0.8172017
v 22.1557484 -24.6554775 -1.2800281
v 22.0282879 -24.6624527 -1.1043311
v 21.8012428 -3.7612805 -1.3079946
v 22.2566624 -25.1546764 -1.5289932
v 21.6607933 -3.7609532 -0.9287402
v 21.6643524 -2.7013390 -0.9883214
v 22.4484615 -26.1578655 -1.9996270
v 31.2029686 -71.6750793 -23.4940300
v 21.6148357 -2.7013402 -0.8546046
v 21.5621262 -1.4802819 -0.7698509
v 21.4872246 -2.7013378 -0.6786615
v 21.2780190 -2.7013233 -0.6070154
v 21.5272789 -1.4808899 -0.6757269
v 21.4908371 0.0026941 -0.6472668
v 21.3996868 -1.4820178 -0.4996864
v 22.1297722 -25.1755104 -1.3541868
v 21.8191357 -24.6647854 -1.0459065
v 21.3867531 -0.0000879 -0.3660624
v 21.4193649 0.1893506 -0.6316731
v 21.3017426 0.1869177 -0.3253039
v 21.2198524 0.1565442 -0.1837917
v 21.2567921 0.0033789 -0.1855620
v 21.1904907 -1.4823669 -0.4170760
v 21.0461025 0.0045068 -0.1275139
v 0.0000000 -3.7597547 -0.6807181
v 0.0000000 -2.6995251 -0.6070154
v 0.0000000 -1.4790612 -0.4170760
v -21.3239708 -3.7607579 -0.6807181
v -21.2780190 -2.7013233 -0.6070154
v 0.0000000 0.0116101 0.0000057
v 21.0481873 0.1873450 -0.1476641
v -21.0461025 0.0045056 -0.1275137
v 21.0992565 0.2487781 -0.3213643
v 0.0000000 0.1935791 -0.0172882
v 21.3017426 0.1869177 -0.3253039
v -21.0481873 0.1873450 -0.1476640
v 21.2288742 0.2515906 -0.6260349
v 21.4193649 0.1893506 -0.6316731
v 0.0000000 0.2542371 -0.5699463
v 0.0000000 0.2542358 -0.1897192
v -21.1904869 -1.4823669 -0.4170760
v -21.0992565 0.2487769 -0.3213641
v -21.2288742 0.2515906 -0.6260350
v -21.4193649 0.1893506 -0.6316733
v -21.3017426 0.1869177 -0.3253038
v -21.2198524 0.1565430 -0.1837907
v -21.2567921 0.0033777 -0.1855618
v -21.3996868 -1.4820178 -0.4996863
v -21.3867531 -0.0000879 -0.3660622
v -21.3017426 0.1869177 -0.3253038
v -21.4872246 -2.7013378 -0.6786621
v -21.4908371 0.0026941 -0.6472670
v -21.4193649 0.1893506 -0.6316733
v -21.5272789 -1.4808899 -0.6757272
v -21.5621262 -1.4802819 -0.7698510
v -21.5331783 -3.7607982 -0.7528482
v -21.6148357 -2.7013402 -0.8546053
v -21.6643524 -2.7013390 -0.9883215
v -21.6607933 -3.7609532 -0.9287405
v -21.8012428 -3.7612805 -1.3079944
v -21.8235435 -22.6604366 -0.6460405
v -21.9502316 -22.7011185 -0.8172022
v -24.6163006 -24.3913765 -7.9369988
v -21.8732510 -23.3735046 -0.7465567
v -21.7609825 -24.2583885 -0.9081179
v -22.0006790 -23.3981533 -0.9205682
v -21.9701996 -24.2594872 -0.9664920
v 0.0000000 -24.6656532 -1.0642920
v -22.0978565 -24.2628098 -1.1422029
v -21.8191357 -24.6647854 -1.0459065
v -22.0282879 -24.6624546 -1.1043315
v 0.0000000 -25.1833687 -1.3152856
v -22.1557484 -24.6554775 -1.2800281
v -21.9208107 -25.1824608 -1.2960640
v -22.1297722 -25.1755104 -1.3541865
v -22.2566624 -25.1546764 -1.5289928
v 21.9208107 -25.1824608 -1.2960644
v -22.4484615 -26.1578655 -1.9996268
v 0.0000000 -26.2259865 -1.7910082
v -31.2039471 -71.6610184 -23.4046288
v 22.3240280 -26.2083359 -1.8300488
v -22.3240280 -26.2083359 -1.8300484
v -22.1158829 -26.2251663 -1.7736533
v 22.1158829 -26.2251663 -1.7736535
v 0.0000000 -71.6870117 -23.2699547
v -31.0713367 -71.6813278 -23.3096275
v -30.8575478 -71.6858902 -23.2461414
v 30.8575478 -71.6858902 -23.2461414
v -30.9119663 -71.8552246 -23.3886967
v 31.0713367 -71.6813278 -23.3096275
v 31.2039452 -71.6610184 -23.4046288
v -31.0766392 -71.8234863 -23.4060631
v 31.1669617 -71.8482437 -23.4759121
v 31.1650620 -71.8516464 -23.5522308
v 31.0766392 -71.8234863 -23.4060669
v 30.9807854 -71.9111786 -23.5101337
v 30.9857616 -71.9105225 -23.5719204
v 30.9119720 -71.8552246 -23.3886967
v 0.0000000 -71.8565445 -23.4125538
v 0.0000000 -71.9130478 -23.5340424
v -30.9807873 -71.9111786 -23.5101337
v -30.9857616 -71.9105225 -23.5719204
v -31.1669655 -71.8482437 -23.4759121
v -31.1650620 -71.8516464 -23.5522327
v -31.2029648 -71.6750793 -23.4940300
v 0.0000000 -71.9130478 -23.5340424
v 0.0000000 -71.9130478 -23.6255264
v 30.9857616 -71.9105225 -23.5719204
v -30.9857616 -71.9105225 -23.5719204
v 0.0000000 -71.9130478 -23.5340424
v 30.9807854 -71.9111786 -23.5101337
v -30.9807873 -71.9111786 -23.5101337
v 0.0000000 -71.8565445 -23.4125538
v 30.9119720 -71.8552246 -23.3886967
v 30.8575478 -71.6858902 -23.2461414
v 0.0000000 -71.6870117 -23.2699547
v -30.9119663 -71.8552246 -23.3886967
v -24.6163006 -24.3913765 -7.9369988
v -31.2029648 -71.6750793 -23.4940300
v -31.2039471 -71.6610184 -23.4046288
v 21.0481873 0.1873450 -0.1476641
v 0.0000000 0.1935791 -0.0172882
v 0.0000000 0.0116101 0.0000057
v -21.0461025 0.0045056 -0.1275137
v -21.0481873 0.1873450 -0.1476640
v 0.0000000 0.2542358 -0.1897192
v 21.0992565 0.2487781 -0.3213643
v 22.0006790 -23.3981533 -0.9205679
v 21.9502316 -22.7011185 -0.8172017
v 21.8235435 -22.6604366 -0.6460398

vt 0.6684115 2.7041054 0
vt -0.7223753 1.7051332 0
vt -0.6912837 1.6630726 0
vt 0.6930336 2.6648171 0
vt -2.0830092 0.6667537 0
vt 0.7019762 2.6683095 0
vt -2.0524335 0.6316513 0
vt -0.6512223 1.6088979 0
vt -0.2253855 3.9241362 0
vt 0.7358376 2.6214147 0
vt 0.6751909 2.6987116 0
vt 0.7451544 2.6286972 0
vt 0.7118063 2.6706173 0
vt 0.7554878 2.6341825 0
vt -0.2121396 3.9320683 0
vt 1.2715955 2.8937948 0
vt 0.6794592 2.6932993 0
vt 0.7735244 2.6232033 0
vt 0.7642432 2.6161895 0
vt -0.1645460 3.9608521 0
vt 0.8020576 2.6083393 0
vt -0.1983932 3.9394388 0
vt -0.2399033 4.0208092 0
vt 0.8579568 2.5647485 0
vt 3.8299651 -0.2664959 0
vt -0.2496489 4.0140705 0
vt -0.3085562 4.0979481 0
vt -0.2647376 4.0041933 0
vt -0.2794949 3.9937763 0
vt -0.3154122 4.0927229 0
vt -0.3808908 4.1903596 0
vt -0.3302472 4.0825214 0
vt 0.7937310 2.5996389 0
vt 0.7555946 2.6084704 0
vt -0.3999153 4.1771512 0
vt -0.3929351 4.2011085 0
vt -0.4133110 4.1849904 0
vt -0.4209396 4.1741457 0
vt -0.4136651 4.1690168 0
vt -0.3444697 4.0716953 0
vt -0.4259149 4.1636357 0
vt -1.6192795 2.9160135 0
vt -1.6703411 2.9847701 0
vt -1.7298617 3.0649071 0
vt -2.9875445 1.8764586 0
vt -3.0366511 1.9478025 0
vt -1.8037981 3.1644251 0
vt -0.4275706 4.1690593 0
vt -3.1553073 2.1355252 0
vt -0.4302683 4.1736903 0
vt -1.8037870 3.1644106 0
vt -0.4207472 4.1821976 0
vt -3.1603832 2.1389260 0
vt -0.4363869 4.1976614 0
vt -0.4243686 4.2047415 0
vt -1.8220934 3.1890361 0
vt -1.8037844 3.1643908 0
vt -3.0907559 2.0315423 0
vt -3.1659565 2.1411116 0
vt -3.1874690 2.1534925 0
vt -3.1969271 2.1443810 0
vt -3.1754227 2.1342325 0
vt -3.1672006 2.1329393 0
vt -3.1640062 2.1247435 0
vt -3.1042857 2.0209053 0
vt -3.1756072 2.1136203 0
vt -3.1794190 2.1285372 0
vt -3.0507064 1.9371281 0
vt -3.1934004 2.0987198 0
vt -3.2002344 2.1130290 0
vt -3.1172223 2.0095048 0
vt -3.1231647 2.0042627 0
vt -2.9989376 1.8662932 0
vt -3.0643926 1.9260290 0
vt -3.0736074 1.9190819 0
vt -3.0100207 1.8555191 0
vt -3.0404620 1.8298559 0
vt -2.0805867 0.6580299 0
vt -2.0766373 0.6512457 0
vt -2.4421809 0.1436857 0
vt -2.0587437 0.6239102 0
vt -2.0240550 0.5778815 0
vt -2.0648384 0.6148122 0
vt -2.0341759 0.5710958 0
vt -0.6340106 1.5855796 0
vt -2.0427797 0.5627281 0
vt -2.0177572 0.5552087 0
vt -2.0277309 0.5490617 0
vt -0.6098205 1.5528333 0
vt -2.0372958 0.5421208 0
vt -2.0096812 0.5216278 0
vt -2.0207548 0.5162487 0
vt -2.0314083 0.5101008 0
vt 0.7857770 2.5903208 0
vt -2.0056453 0.4432765 0
vt -0.5587419 1.4837506 0
vt -0.1652429 -3.2357006 0
vt 0.8561525 2.5537889 0
vt -1.9954481 0.4433617 0
vt -1.9837432 0.4428324 0
vt 0.8541663 2.5412569 0
vt 1.8353285 -1.7546272 0
vt -0.1648779 -3.2291036 0
vt -0.1623894 -3.2244473 0
vt 3.8246384 -0.2750421 0
vt -0.1605070 -3.2274952 0
vt 3.8263087 -0.2711573 0
vt 3.8284264 -0.2680017 0
vt -0.1619172 -3.2306499 0
vt 3.8309655 -0.2690809 0
vt 3.8311763 -0.2689416 0
vt 3.8289037 -0.2711388 0
vt 3.8327599 -0.2714369 0
vt 3.8330507 -0.2711246 0
vt 3.8287873 -0.2738199 0
vt 1.8353285 -1.7546248 0
vt 1.8353292 -1.7546241 0
vt -0.1583425 -3.2294340 0
vt -0.1579322 -3.2296810 0
vt -0.1596299 -3.2347298 0
vt -0.1593626 -3.2359791 0
vt -0.1647916 -3.2362213 0
vt 1.8353292 -1.7546241 0
vt 1.8353292 -1.7546241 0
vt 3.8330507 -0.2711246 0
vt -0.1579322 -3.2296810 0
vt 1.8353292 -1.7546241 0
vt 3.8327599 -0.2714369 0
vt -0.1583425 -3.2294340 0
vt 1.8353285 -1.7546248 0
vt 3.8287873 -0.2738199 0
vt 3.8246384 -0.2750421 0
vt 1.8353285 -1.7546272 0
vt -0.1605070 -3.2274952 0
vt -2.4421809 0.1436857 0
vt -0.1647916 -3.2362213 0
vt -0.1652429 -3.2357006 0
vt -0.4275706 4.1690593 0
vt -1.8037870 3.1644106 0
vt -1.8037981 3.1644251 0
vt -3.1553073 2.1355252 0
vt -3.1603832 2.1389260 0
vt -1.8037844 3.1643908 0
vt -0.4302683 4.1736903 0
vt 0.7118063 2.6706173 0
vt 0.6794592 2.6932993 0
vt 0.6751909 2.6987116 0

vn 0.0031676 -0.0595029 0.9982231
vn -0.0000038 -0.0212400 0.9997743
vn 0.0005236 -0.0802933 0.9967711
vn 0.1332788 -0.2057789 0.9694802
vn -0.0385548 -0.0223991 0.9990053
vn 0.5116290 -0.0697339 0.8563719
vn -0.0308051 -0.0979818 0.9947113
vn -0.0003357 -0.2483100 0.9686806
vn 0.0604816 -0.0002198 0.9981692
vn 0.1284216 -0.2953777 0.9467101
vn 0.4474395 -0.0204385 0.8940807
vn 0.5508453 -0.1612569 0.8188808
vn 0.8510219 -0.0168291 0.5248604
vn 0.8485709 -0.0412427 0.5274716
vn 0.6015857 -0.0184165 0.7985959
vn 0.9376404 0.0163733 0.3472207
vn 0.8615885 0.0139763 0.5074149
vn 0.8534547 -0.0576688 0.5179665
vn 0.5788561 -0.2120996 0.7873623
vn 0.9376402 0.0163739 0.3472213
vn 0.8556761 -0.0801881 0.5112615
vn 0.8863665 0.0060849 0.4629441
vn 0.9376409 0.0163747 0.3472195
vn 0.9183204 -0.0092741 0.3957292
vn 0.9969063 0.0259235 0.0742006
vn 0.8805075 -0.0056229 0.4739988
vn 0.9376383 0.0163730 0.3472264
vn 0.5993344 -0.0635099 0.7979754
vn 0.1645084 -0.0642664 0.9842798
vn 0.8811827 -0.0148000 0.4725440
vn 0.9328501 0.0994102 0.3462776
vn 0.5912981 -0.0973289 0.8005584
vn 0.5901515 -0.2522636 0.7668664
vn 0.1350765 -0.4034538 0.9049748
vn 0.8781582 0.1994231 0.4348204
vn 0.8251984 0.4686688 0.3152733
vn 0.4725276 0.8348783 0.2823041
vn 0.5233994 0.4434360 0.7276109
vn 0.7382849 0.0072119 0.6744503
vn 0.1771678 -0.1378320 0.9744813
vn 0.1833699 -0.1152053 0.9762700
vn -0.0000014 -0.0520602 0.9986439
vn -0.0000046 -0.1328510 0.9911360
vn 0.0013734 -0.2024685 0.9792878
vn -0.1424470 -0.0388302 0.9890405
vn -0.1731355 -0.1134239 0.9783451
vn 0.0023509 -0.0225891 0.9997420
vn 0.0966182 0.2754704 0.9564418
vn -0.0880386 0.0029627 0.9961126
vn 0.1001077 0.9593853 0.2637388
vn -0.0024673 0.5949802 0.8037364
vn 0.4725276 0.8348783 0.2823041
vn -0.1024530 0.8584719 0.5025228
vn 0.1712918 0.9821205 0.0780929
vn 0.8251984 0.4686688 0.3152733
vn -0.0001102 0.9999809 0.0061741
vn -0.0015253 0.9730431 0.2306181
vn -0.1569516 -0.1670647 0.9733732
vn -0.1858333 0.9692912 0.1610611
vn -0.3015205 0.9435672 0.1369905
vn -0.4163286 0.8920017 0.1760781
vn -0.7745281 0.5076977 0.3772917
vn -0.5170369 0.4428852 0.7324790
vn -0.3879122 -0.0695531 0.9190682
vn -0.6068529 -0.0846765 0.7902907
vn -0.8309317 0.1034417 0.5466740
vn -0.7745281 0.5076977 0.3772917
vn -0.5965921 -0.0428977 0.8013971
vn -0.9245105 0.1565066 0.3475429
vn -0.4163286 0.8920017 0.1760781
vn -0.8822735 -0.0061291 0.4706974
vn -0.9376404 0.0163747 0.3472210
vn -0.4730491 -0.0027009 0.8810319
vn -0.8822149 0.0046890 0.4708235
vn -0.9376402 0.0163736 0.3472212
vn -0.8731969 0.0154819 0.4871216
vn -0.9376399 0.0163735 0.3472222
vn -0.5040979 -0.0293876 0.8631464
vn -0.8943893 -0.0011375 0.4472879
vn -0.9616914 0.0450977 0.2703994
vn -0.5606260 -0.1215385 0.8191013
vn -0.1333053 -0.2451167 0.9602851
vn -0.8642318 -0.0290447 0.5022545
vn -0.5939277 -0.1666408 0.7870709
vn -0.0001251 -0.3466730 0.9379860
vn -0.8702095 -0.0419462 0.4908928
vn -0.1249594 -0.3392564 0.9323573
vn -0.5570982 -0.2468887 0.7928982
vn -0.0000397 -0.4304739 0.9026029
vn -0.8669004 -0.0661513 0.4940724
vn -0.1211671 -0.4072730 0.9052332
vn -0.5564405 -0.2633822 0.7880378
vn -0.8670274 -0.0659989 0.4938701
vn 0.1412492 -0.3913912 0.9093192
vn -0.7270464 -0.1731233 0.6644034
vn -0.0003021 -0.4188347 0.9080624
vn -0.9155836 -0.1959532 0.3511539
vn 0.5340354 -0.2700462 0.8011749
vn -0.5632108 -0.2606548 0.7841253
vn -0.1080826 -0.4015360 0.9094432
vn 0.1736282 -0.3926710 0.9031404
vn 0.0002511 -0.5137806 0.8579215
vn -0.6523385 -0.2802651 0.7042059
vn -0.2239198 -0.4631755 0.8575128
vn 0.0914615 -0.5779263 0.8109475
vn -0.0764500 -0.6862798 0.7233086
vn 0.3278069 -0.4156972 0.8483741
vn 0.7560201 -0.2833330 0.5900476
vn -0.3408151 -0.5994126 0.7242579
vn 0.6607498 -0.6655462 0.3470705
vn 0.6967906 -0.7172607 0.0044571
vn 0.3171668 -0.6402814 0.6996033
vn 0.1874941 -0.9492217 0.2526338
vn 0.1409824 -0.9899889 0.0067727
vn 0.0762357 -0.8631837 0.4991011
vn -0.0001979 -0.7783162 0.6278724
vn -0.0001369 -0.9831771 0.1826547
vn -0.1152274 -0.9153600 0.3857963
vn -0.1202879 -0.9926981 0.0090073
vn -0.4765933 -0.8275229 0.2967567
vn -0.8643136 -0.5022488 0.0266037
vn -0.9760090 -0.2164773 0.0233245
vn -0.0001369 -0.9831771 0.1826547
vn 0.0000813 -0.9999999 0.0000000
vn 0.1409824 -0.9899889 0.0067727
vn -0.1202879 -0.9926981 0.0090073
vn -0.0001369 -0.9831771 0.1826547
vn 0.1874941 -0.9492217 0.2526338
vn -0.1152274 -0.9153600 0.3857963
vn -0.0001979 -0.7783162 0.6278724
vn 0.0762357 -0.8631837 0.4991011
vn 0.0914615 -0.5779263 0.8109475
vn 0.0002511 -0.5137806 0.8579215
vn -0.0764500 -0.6862798 0.7233086
vn -0.9616914 0.0450977 0.2703994
vn -0.9760090 -0.2164773 0.0233245
vn -0.9155836 -0.1959532 0.3511539
vn 0.0966182 0.2754704 0.9564418
vn -0.0024673 0.5949802 0.8037364
vn 0.0023509 -0.0225891 0.9997420
vn -0.0880386 0.0029627 0.9961126
vn -0.1024530 0.8584719 0.5025228
vn -0.0015253 0.9730431 0.2306181
vn 0.1001077 0.9593853 0.2637388
vn 0.8510219 -0.0168291 0.5248604
vn 0.8615885 0.0139763 0.5074149
vn 0.4474395 -0.0204385 0.8940807
usemtl Merged_6
f 1/1/1 2/2/2 3/3/3
f 3/3/3 4/4/4 1/1/1
f 3/3/3 2/2/2 5/5/5
f 1/1/1 4/4/4 6/6/6
f 5/5/5 7/7/7 3/3/3
f 4/4/4 3/3/3 8/8/8
f 8/8/8 3/3/3 7/7/7
f 2/2/2 1/1/1 9/9/9
f 8/8/8 10/10/10 4/4/4
f 9/9/9 1/1/1 11/11/11
f 6/6/6 11/11/11 1/1/1
f 4/4/4 10/10/10 12/12/12
f 12/12/12 6/6/6 4/4/4
f 11/11/11 6/6/6 13/13/13
f 6/6/6 12/12/12 14/14/14
f 14/14/14 13/13/13 6/6/6
f 11/11/11 15/15/15 9/9/9
f 13/13/13 14/14/14 16/16/16
f 15/15/15 11/11/11 17/17/17
f 17/17/17 13/13/13 16/16/16
f 18/18/18 14/14/14 12/12/12
f 14/14/14 18/18/18 16/16/16
f 19/19/19 12/12/12 10/10/10
f 12/12/12 19/19/19 18/18/18
f 17/17/17 16/16/16 20/20/20
f 21/21/21 18/18/18 19/19/19
f 18/18/18 21/21/21 16/16/16
f 20/20/20 22/22/22 17/17/17
f 17/17/17 22/22/22 15/15/15
f 22/22/22 20/20/20 23/23/23
f 21/21/21 24/24/24 16/16/16
f 25/25/25 16/16/16 24/24/24
f 23/23/23 26/26/26 22/22/22
f 26/26/26 23/23/23 27/27/27
f 28/28/28 15/15/15 22/22/22
f 22/22/22 26/26/26 28/28/28
f 29/29/29 9/9/9 15/15/15
f 15/15/15 28/28/28 29/29/29
f 27/27/27 30/30/30 26/26/26
f 30/30/30 27/27/27 31/31/31
f 32/32/32 28/28/28 26/26/26
f 26/26/26 30/30/30 32/32/32
f 19/19/19 33/33/33 21/21/21
f 24/24/24 21/21/21 33/33/33
f 10/10/10 34/34/34 19/19/19
f 33/33/33 19/19/19 34/34/34
f 31/31/31 35/35/35 30/30/30
f 35/35/35 31/31/31 36/36/36
f 36/36/36 37/37/37 35/35/35
f 35/35/35 37/37/37 38/38/38
f 30/30/30 35/35/35 39/39/39
f 39/39/39 32/32/32 30/30/30
f 38/38/38 39/39/39 35/35/35
f 28/28/28 32/32/32 40/40/40
f 40/40/40 29/29/29 28/28/28
f 32/32/32 39/39/39 41/41/41
f 41/41/41 40/40/40 32/32/32
f 41/41/41 39/39/39 38/38/38
f 42/42/42 9/9/9 29/29/29
f 9/9/9 42/42/42 2/2/2
f 43/43/43 29/29/29 40/40/40
f 29/29/29 43/43/43 42/42/42
f 44/44/44 40/40/40 41/41/41
f 40/40/40 44/44/44 43/43/43
f 2/2/2 42/42/42 45/45/45
f 45/45/45 5/5/5 2/2/2
f 42/42/42 43/43/43 46/46/46
f 46/46/46 45/45/45 42/42/42
f 41/41/41 47/47/47 44/44/44
f 47/47/47 41/41/41 48/48/48
f 38/38/38 48/48/48 41/41/41
f 44/44/44 47/47/47 49/49/49
f 50/50/50 48/48/48 38/38/38
f 51/51/51 48/48/48 50/50/50
f 38/38/38 52/52/52 50/50/50
f 51/51/51 53/53/53 49/49/49
f 54/54/54 50/50/50 52/52/52
f 52/52/52 55/55/55 54/54/54
f 50/50/50 54/54/54 56/56/56
f 56/56/56 57/57/57 50/50/50
f 43/43/43 44/44/44 58/58/58
f 58/58/58 46/46/46 43/43/43
f 49/49/49 58/58/58 44/44/44
f 59/59/59 57/57/57 56/56/56
f 57/57/57 59/59/59 53/53/53
f 56/56/56 60/60/60 59/59/59
f 59/59/59 60/60/60 61/61/61
f 61/61/61 62/62/62 59/59/59
f 59/59/59 62/62/62 63/63/63
f 63/63/63 53/53/53 59/59/59
f 49/49/49 53/53/53 63/63/63
f 58/58/58 49/49/49 64/64/64
f 63/63/63 64/64/64 49/49/49
f 46/46/46 58/58/58 65/65/65
f 64/64/64 65/65/65 58/58/58
f 66/66/66 64/64/64 63/63/63
f 65/65/65 64/64/64 66/66/66
f 63/63/63 67/67/67 66/66/66
f 65/65/65 68/68/68 46/46/46
f 69/69/69 66/66/66 67/67/67
f 67/67/67 70/70/70 69/69/69
f 45/45/45 46/46/46 68/68/68
f 71/71/71 66/66/66 69/69/69
f 66/66/66 71/71/71 65/65/65
f 68/68/68 65/65/65 71/71/71
f 69/69/69 72/72/72 71/71/71
f 68/68/68 73/73/73 45/45/45
f 74/74/74 71/71/71 72/72/72
f 71/71/71 74/74/74 68/68/68
f 73/73/73 68/68/68 74/74/74
f 72/72/72 75/75/75 74/74/74
f 5/5/5 45/45/45 73/73/73
f 76/76/76 74/74/74 75/75/75
f 74/74/74 76/76/76 73/73/73
f 75/75/75 77/77/77 76/76/76
f 73/73/73 78/78/78 5/5/5
f 78/78/78 73/73/73 76/76/76
f 7/7/7 5/5/5 78/78/78
f 79/79/79 76/76/76 77/77/77
f 76/76/76 79/79/79 78/78/78
f 77/77/77 80/80/80 79/79/79
f 78/78/78 81/81/81 7/7/7
f 81/81/81 78/78/78 79/79/79
f 82/82/82 7/7/7 81/81/81
f 7/7/7 82/82/82 8/8/8
f 79/79/79 83/83/83 81/81/81
f 79/79/79 80/80/80 83/83/83
f 81/81/81 84/84/84 82/82/82
f 84/84/84 81/81/81 83/83/83
f 85/85/85 8/8/8 82/82/82
f 10/10/10 8/8/8 85/85/85
f 85/85/85 34/34/34 10/10/10
f 83/83/83 86/86/86 84/84/84
f 83/83/83 80/80/80 86/86/86
f 87/87/87 82/82/82 84/84/84
f 82/82/82 87/87/87 85/85/85
f 88/88/88 84/84/84 86/86/86
f 84/84/84 88/88/88 87/87/87
f 34/34/34 85/85/85 89/89/89
f 89/89/89 85/85/85 87/87/87
f 86/86/86 90/90/90 88/88/88
f 86/86/86 80/80/80 90/90/90
f 91/91/91 87/87/87 88/88/88
f 87/87/87 91/91/91 89/89/89
f 92/92/92 88/88/88 90/90/90
f 88/88/88 92/92/92 91/91/91
f 90/90/90 80/80/80 93/93/93
f 90/90/90 93/93/93 92/92/92
f 89/89/89 94/94/94 34/34/34
f 34/34/34 94/94/94 33/33/33
f 93/93/93 80/80/80 95/95/95
f 96/96/96 89/89/89 91/91/91
f 94/94/94 89/89/89 96/96/96
f 97/97/97 95/95/95 80/80/80
f 98/98/98 33/33/33 94/94/94
f 33/33/33 98/98/98 24/24/24
f 93/93/93 95/95/95 99/99/99
f 99/99/99 92/92/92 93/93/93
f 100/100/100 91/91/91 92/92/92
f 91/91/91 100/100/100 96/96/96
f 92/92/92 99/99/99 100/100/100
f 96/96/96 101/101/101 94/94/94
f 94/94/94 101/101/101 98/98/98
f 102/102/102 96/96/96 100/100/100
f 101/101/101 96/96/96 102/102/102
f 103/103/103 99/99/99 95/95/95
f 95/95/95 97/97/97 103/103/103
f 104/104/104 100/100/100 99/99/99
f 100/100/100 104/104/104 102/102/102
f 99/99/99 103/103/103 104/104/104
f 102/102/102 105/105/105 101/101/101
f 102/102/102 104/104/104 106/106/106
f 107/107/107 98/98/98 101/101/101
f 101/101/101 105/105/105 107/107/107
f 108/108/108 24/24/24 98/98/98
f 98/98/98 107/107/107 108/108/108
f 24/24/24 108/108/108 25/25/25
f 104/104/104 103/103/103 109/109/109
f 109/109/109 106/106/106 104/104/104
f 109/109/109 103/103/103 97/97/97
f 25/25/25 108/108/108 110/110/110
f 110/110/110 111/111/111 25/25/25
f 108/108/108 107/107/107 112/112/112
f 112/112/112 110/110/110 108/108/108
f 112/112/112 107/107/107 105/105/105
f 111/111/111 110/110/110 113/113/113
f 113/113/113 110/110/110 112/112/112
f 113/113/113 114/114/114 111/111/111
f 105/105/105 115/115/115 112/112/112
f 112/112/112 115/115/115 113/113/113
f 116/116/116 115/115/115 105/105/105
f 117/117/117 113/113/113 115/115/115
f 116/116/116 106/106/106 118/118/118
f 118/118/118 106/106/106 109/109/109
f 117/117/117 118/118/118 119/119/119
f 109/109/109 120/120/120 118/118/118
f 119/119/119 118/118/118 120/120/120
f 97/97/97 120/120/120 109/109/109
f 120/120/120 121/121/121 119/119/119
f 121/121/121 120/120/120 97/97/97
f 97/97/97 122/122/122 121/121/121
f 123/123/123 124/124/124 125/125/125
f 126/126/126 124/124/124 127/127/127
f 125/125/125 128/128/128 123/123/123
f 129/129/129 123/123/123 130/130/130
f 131/131/131 130/130/130 123/123/123
f 132/132/132 133/133/133 130/130/130
f 134/134/134 130/130/130 133/133/133
f 135/135/135 136/136/136 137/137/137
f 138/138/138 139/139/139 140/140/140
f 141/141/141 140/140/140 139/139/139
f 142/142/142 139/139/139 143/143/143
f 144/144/144 143/143/143 139/139/139
f 145/145/145 146/146/146 147/147/147
o $physics_proxy_1
