# cgf-converter .obj export version 1.0.0.0
#
mtllib lo2park_segment3_jump_d.mtl
o Merged
g Merged
v -0.6420019 -9.0381927 -0.6472729
v -0.6420019 -8.0606489 -0.6706128
v -3.0223486 -8.0655317 -0.6707837
v -3.0223486 -9.0381784 -0.6472729
v -3.0223486 -7.2120605 -0.6948486
v -0.6420019 -10.0137691 -0.5225635
v -3.3160253 -7.2120605 -0.6948486
v -3.3160253 -8.0661325 -0.6708056
v -0.3483252 -9.0381927 -0.6472729
v -3.3685253 -7.2098336 -0.7124341
v -3.3597949 -7.1648045 -0.7222436
v -3.3160253 -7.1571436 -0.7136694
v -3.3685253 -8.0824604 -0.6773706
v -3.0223486 -7.1571436 -0.7136694
v -3.3160253 -9.0381784 -0.6472729
v -3.3685253 -9.0382318 -0.6647729
v -0.6420019 -7.2120605 -0.6948559
v -0.6420019 -7.1571436 -0.7136719
v -3.3160253 -10.0137691 -0.5225635
v -3.3685253 -9.9984760 -0.5310669
v -3.0223486 -10.0137691 -0.5225635
v -3.3160253 -10.9759712 -0.3325073
v -3.3685253 -10.9885159 -0.3447095
v -3.0223486 -10.9759712 -0.3325073
v -0.3483252 -8.0600491 -0.6705908
v -0.3483252 -7.2120605 -0.6948559
v -0.3483252 -7.1571436 -0.7136719
v -0.3045508 -7.1648045 -0.7222412
v -0.2958252 -7.2098336 -0.7124121
v -0.2958252 -8.0761766 -0.6771289
v -0.2958252 -9.0381536 -0.6647729
v -0.2958252 -9.9984665 -0.5310571
v -3.3160253 -11.6835060 -0.1535937
v -3.3685253 -11.6825533 -0.1710669
v -0.3483252 -10.0137691 -0.5225635
v -3.3685253 -11.9528904 -0.0856567
v -0.2958252 -10.9885159 -0.3447095
v -0.3483252 -10.9759712 -0.3325073
v -0.2958252 -11.6825533 -0.1710669
v -3.0223486 -11.6835060 -0.1535937
v -3.3160253 -11.9579973 -0.0693604
v -3.3685253 -12.2137642 -0.0032373
v -0.6420019 -10.9759712 -0.3325073
v -0.3483252 -11.6835060 -0.1535937
v -0.2958252 -11.9528904 -0.0856567
v -0.6420019 -11.6835060 -0.1535937
v -3.0223486 -12.0890427 -0.0291455
v -0.6420019 -12.0890427 -0.0291455
v -0.3483252 -11.9579973 -0.0693604
v -0.2958252 -12.2137642 -0.0032373
v -3.3160253 -12.2228756 0.0119238
v -3.3685253 -12.2471380 0.0073071
v -0.3483252 -12.2228756 0.0119238
v -3.0223486 -12.2228756 0.0119238
v -0.6420019 -12.2228756 0.0119238
v -0.3483252 -12.2563372 0.0221924
v -0.2958252 -12.2471380 0.0073071
v -0.6420019 -12.2563372 0.0221924
v -3.0223486 -12.2563372 0.0221924
v -3.3160253 -12.2563372 0.0221924
v -3.3685253 -12.2821388 0.0075488
v -0.3483252 -12.2913332 0.0226074
v -0.2958252 -12.2821388 0.0075488
v -0.2958252 -12.7959375 0.0111011
v -3.3160253 -12.2913332 0.0226074
v -3.3685253 -12.7959375 0.0111011
v -3.0223486 -12.2913332 0.0226074
v -0.6420019 -12.2913332 0.0226074
v -0.3483252 -12.7959423 0.0286011
v -0.3045752 -12.8396873 0.0028735
v -0.3483252 -12.8484373 0.0117261
v -0.6420019 -12.7959423 0.0286011
v -0.6420019 -12.8484373 0.0117261
v -3.0223486 -12.7959423 0.0286011
v -3.0223486 -12.8484373 0.0117261
v -3.3160253 -12.7959423 0.0286011
v -3.3597753 -12.8396873 0.0028735
v -3.3160253 -12.8484373 0.0117261
v -0.6420019 -12.8659372 -0.7481470
v -0.6420019 -12.8659372 -0.0405664
v -3.0223486 -12.8659372 -0.0405664
v -0.3483252 -12.8659372 -0.7481470
v -3.0223486 -12.8659372 -0.7481470
v -0.3483252 -12.8659372 -0.0405664
v -0.2958252 -12.8487349 -0.7513574
v -0.2958252 -12.8484373 -0.0407739
v -0.3045752 -12.8396873 0.0028735
v -0.3483252 -12.8484373 0.0117261
v -0.6420019 -12.8484373 0.0117261
v -3.0223486 -12.8484373 0.0117261
v -3.3160253 -12.8484373 0.0117261
v -3.3160253 -12.8659372 -0.0405664
v -3.3597753 -12.8396873 0.0028735
v -3.3160253 -12.8659372 -0.7481470
v -3.3685253 -12.8484373 -0.0407739
v -3.3685253 -12.8487349 -0.7513574
v -3.3860254 -9.9525881 -0.5565796
v -3.3860254 -9.0383835 -0.7172729
v -3.3860254 -9.0394087 -1.0642968
v -3.3685253 -9.9984760 -0.5310669
v -3.3685253 -9.0382318 -0.6647729
v -3.3685253 -10.9885159 -0.3447095
v -3.3860254 -8.1311712 -0.6970508
v -3.3685253 -8.0824604 -0.6773706
v -3.3860254 -11.0261469 -0.3813184
v -3.3860254 -7.1890965 -0.8647143
v -3.3685253 -11.6825533 -0.1710669
v -3.3860254 -11.6385984 -0.9771533
v -3.3860254 -7.2031589 -0.7651465
v -3.3685253 -7.2098336 -0.7124341
v -3.3597949 -7.1648045 -0.7222436
v -3.3685253 -7.1500387 -0.7659033
v -3.3685253 -7.1368995 -0.8590844
v -3.3860254 -11.6796923 -0.2234888
v -3.3860254 -11.9544239 -0.1287622
v -3.3685253 -11.9528904 -0.0856567
v -3.3860254 -12.2195311 -0.0373511
v -3.3685253 -12.2137642 -0.0032373
v -3.3685253 -12.2471380 0.0073071
v -3.3860254 -12.7971239 -0.7609863
v -3.3685253 -12.2821388 0.0075488
v -3.3860254 -12.7959375 -0.0414038
v -3.3685253 -12.8487349 -0.7513574
v -3.3685253 -12.7959375 0.0111011
v -3.3685253 -12.8484373 -0.0407739
v -3.3597753 -12.8396873 0.0028735
v -0.2783252 -8.1248341 -0.6967529
v -0.2783252 -9.0380421 -0.7172729
v -0.2783252 -9.0372849 -1.0645117
v -0.2783252 -7.1890965 -0.8647290
v -0.2783252 -9.9525633 -0.5565332
v -0.2783252 -7.2031641 -0.7651196
v -0.2958252 -7.1368995 -0.8590893
v -0.2958252 -7.1500387 -0.7658960
v -0.3045508 -7.1648045 -0.7222412
v -0.2958252 -7.2098336 -0.7124121
v -0.2958252 -8.0761766 -0.6771289
v -0.2958252 -9.0381536 -0.6647729
v -0.2958252 -9.9984665 -0.5310571
v -0.2783252 -11.6385984 -0.9771533
v -0.2783252 -11.0261469 -0.3813184
v -0.2958252 -10.9885159 -0.3447095
v -0.2783252 -11.6796923 -0.2234888
v -0.2958252 -11.6825533 -0.1710669
v -0.2783252 -11.9544239 -0.1287622
v -0.2958252 -11.9528904 -0.0856567
v -0.2783252 -12.2195311 -0.0373511
v -0.2958252 -12.2137642 -0.0032373
v -0.2958252 -12.2471380 0.0073071
v -0.2958252 -12.2821388 0.0075488
v -0.2783252 -12.7971239 -0.7609863
v -0.2958252 -12.7959375 0.0111011
v -0.2958252 -12.8484373 -0.0407739
v -0.2958252 -12.8487349 -0.7513574
v -0.2783252 -12.7959375 -0.0414038
v -0.3045752 -12.8396873 0.0028735
v -3.0223486 -7.1195016 -0.8572070
v -3.0223486 -7.1323290 -0.7661548
v -0.6420019 -7.1323290 -0.7661548
v -3.3160253 -7.1195016 -0.8572070
v -0.6420019 -7.1195016 -0.8572070
v -3.3160253 -7.1323290 -0.7661548
v -3.3685253 -7.1368995 -0.8590844
v -3.3685253 -7.1500387 -0.7659033
v -3.3597949 -7.1648045 -0.7222436
v -3.3160253 -7.1571436 -0.7136694
v -3.0223486 -7.1571436 -0.7136694
v -0.6420019 -7.1571436 -0.7136719
v -0.3483252 -7.1571436 -0.7136719
v -0.3483252 -7.1323290 -0.7661548
v -0.3045508 -7.1648045 -0.7222412
v -0.3483252 -7.1195016 -0.8572070
v -0.2958252 -7.1500387 -0.7658960
v -0.2958252 -7.1368995 -0.8590893

vt 0.7242950 0.2162962 0
vt 0.8019139 0.2445568 0
vt 0.7327449 0.4333733 0
vt 0.6555105 0.4052652 0
vt 0.8005251 0.4580452 0
vt 0.6462179 0.1878792 0
vt 0.7920292 0.4813157 0
vt 0.7242295 0.4566716 0
vt 0.7327886 0.1929821 0
vt 0.7907705 0.4857794 0
vt 0.7947249 0.4865050 0
vt 0.7965609 0.4830860 0
vt 0.7214386 0.4603952 0
vt 0.8051325 0.4597350 0
vt 0.6470289 0.4285837 0
vt 0.6455414 0.4329945 0
vt 0.8693060 0.2690909 0
vt 0.8739210 0.2707585 0
vt 0.5689461 0.4001520 0
vt 0.5687293 0.4048008 0
vt 0.5774343 0.3768421 0
vt 0.4910877 0.3718150 0
vt 0.4887561 0.3758577 0
vt 0.4995754 0.3485025 0
vt 0.8104633 0.2212713 0
vt 0.8777567 0.2458056 0
vt 0.8823656 0.2473631 0
vt 0.8831570 0.2435653 0
vt 0.8796616 0.2415785 0
vt 0.8107348 0.2166312 0
vt 0.7344915 0.1886502 0
vt 0.6575234 0.1608672 0
vt 0.4331467 0.3507314 0
vt 0.4319966 0.3552627 0
vt 0.6547003 0.1645676 0
vt 0.4095425 0.3470217 0
vt 0.5776585 0.1316281 0
vt 0.5768455 0.1362236 0
vt 0.5209430 0.1109145 0
vt 0.4416454 0.3274179 0
vt 0.4103557 0.3424317 0
vt 0.3878098 0.3390801 0
vt 0.5683600 0.1595370 0
vt 0.5189118 0.1151247 0
vt 0.4984461 0.1027927 0
vt 0.5104312 0.1384470 0
vt 0.4079843 0.3151602 0
vt 0.4767655 0.1261950 0
vt 0.4961176 0.1068308 0
vt 0.4766958 0.0949017 0
vt 0.3883792 0.3344277 0
vt 0.3849774 0.3380027 0
vt 0.4741405 0.0988311 0
vt 0.3968923 0.3111180 0
vt 0.4656731 0.1221582 0
vt 0.4713838 0.0978640 0
vt 0.4738345 0.0939059 0
vt 0.4629160 0.1211570 0
vt 0.3941361 0.3101111 0
vt 0.3856457 0.3333957 0
vt 0.3820998 0.3370345 0
vt 0.4686468 0.0968425 0
vt 0.4710085 0.0927969 0
vt 0.4301249 0.0779172 0
vt 0.3828923 0.3324180 0
vt 0.3412188 0.3221481 0
vt 0.3913770 0.3091052 0
vt 0.4601573 0.1201537 0
vt 0.4286254 0.0823047 0
vt 0.4262897 0.0772265 0
vt 0.4243313 0.0806077 0
vt 0.4201044 0.1055666 0
vt 0.4157282 0.1039596 0
vt 0.3513202 0.2945287 0
vt 0.3469356 0.2929457 0
vt 0.3428915 0.3178235 0
vt 0.3378373 0.3202119 0
vt 0.3385115 0.3163631 0
vt 0.2740576 0.5868373 0
vt 0.2945095 0.5306621 0
vt 0.4834671 0.5994349 0
vt 0.2507463 0.5783309 0
vt 0.4630252 0.6556137 0
vt 0.2712266 0.5222108 0
vt 0.2462698 0.5769697 0
vt 0.2669051 0.5205288 0
vt 0.2688459 0.5171509 0
vt 0.2726918 0.5178308 0
vt 0.2960935 0.5262765 0
vt 0.4850730 0.5950572 0
vt 0.5084283 0.6036296 0
vt 0.5067348 0.6079266 0
vt 0.5118111 0.6055808 0
vt 0.4863487 0.6640809 0
vt 0.5111265 0.6094157 0
vt 0.4906524 0.6659153 0
vt 0.5409147 0.4709592 0
vt 0.4689580 0.4397643 0
vt 0.4758958 0.4112866 0
vt 0.5439766 0.4744394 0
vt 0.4678452 0.4442620 0
vt 0.6217502 0.5089802 0
vt 0.3940440 0.4234528 0
vt 0.3895331 0.4245522 0
vt 0.6256757 0.5064678 0
vt 0.3199785 0.3909981 0
vt 0.6753566 0.5368648 0
vt 0.6877019 0.4695452 0
vt 0.3192381 0.3994358 0
vt 0.3185899 0.4040751 0
vt 0.3149191 0.4024671 0
vt 0.3146583 0.3984646 0
vt 0.3153022 0.3904896 0
vt 0.6762762 0.5322808 0
vt 0.6969931 0.5454619 0
vt 0.6958621 0.5492272 0
vt 0.7169746 0.5581741 0
vt 0.7156671 0.5611695 0
vt 0.7182484 0.5626652 0
vt 0.7786343 0.5100719 0
vt 0.7211517 0.5633845 0
vt 0.7643757 0.5691299 0
vt 0.7829210 0.5119525 0
vt 0.7634103 0.5736643 0
vt 0.7688417 0.5703756 0
vt 0.7672955 0.5739521 0
vt 0.6589880 0.6229533 0
vt 0.5907362 0.5869273 0
vt 0.6039158 0.5607266 0
vt 0.7360789 0.6455735 0
vt 0.5155771 0.5644277 0
vt 0.7312089 0.6525079 0
vt 0.7399831 0.6481973 0
vt 0.7353395 0.6547135 0
vt 0.7325620 0.6576067 0
vt 0.7287174 0.6564742 0
vt 0.6617284 0.6266943 0
vt 0.5886700 0.5910748 0
vt 0.5109938 0.5651147 0
vt 0.4042122 0.4687872 0
vt 0.4278724 0.5369835 0
vt 0.4292573 0.5414335 0
vt 0.3725419 0.5241343 0
vt 0.3702927 0.5282331 0
vt 0.3482054 0.5208715 0
vt 0.3466457 0.5244799 0
vt 0.3247322 0.5177245 0
vt 0.3238046 0.5208582 0
vt 0.3208662 0.5203409 0
vt 0.3181804 0.5190212 0
vt 0.3085525 0.4412143 0
vt 0.2792336 0.4996631 0
vt 0.2771976 0.4936485 0
vt 0.3040629 0.4398922 0
vt 0.2814164 0.4955728 0
vt 0.2760757 0.4973804 0
vt 0.5508395 0.6322237 0
vt 0.5534958 0.6249192 0
vt 0.7424576 0.6936985 0
vt 0.5275060 0.6237251 0
vt 0.7397994 0.7010022 0
vt 0.5302108 0.6164745 0
vt 0.5231349 0.6219914 0
vt 0.5260001 0.6145235 0
vt 0.5280006 0.6110485 0
vt 0.5317836 0.6118610 0
vt 0.5551679 0.6203038 0
vt 0.7441418 0.6890876 0
vt 0.7674841 0.6976413 0
vt 0.7657264 0.7021872 0
vt 0.7709057 0.6994478 0
vt 0.7631416 0.7094814 0
vt 0.7702066 0.7033960 0
vt 0.7676055 0.7109611 0

vn -0.0000073 0.0900803 0.9959345
vn -0.0000929 0.0254439 0.9996762
vn -0.0000943 0.0266613 0.9996445
vn -0.0000251 0.0610316 0.9981358
vn -0.0000064 0.2069355 0.9783545
vn 0.0000000 0.1698539 0.9854692
vn -0.1052645 0.1848847 0.9771065
vn -0.1086367 0.0286007 0.9936700
vn 0.1109461 0.0825023 0.9903960
vn -0.3756959 0.1137487 0.9197357
vn -0.5474244 0.5593767 0.6224340
vn -0.0891211 0.6556407 0.7497951
vn -0.5611811 0.0219291 0.8274025
vn 0.0000004 0.6835308 0.7299216
vn -0.1155185 0.0672463 0.9910264
vn -0.6407586 0.0577328 0.7655686
vn -0.0000226 0.1555809 0.9878231
vn 0.0000004 0.6493037 0.7605291
vn -0.1067165 0.1593027 0.9814450
vn -0.5448099 0.1509531 0.8248607
vn 0.0000000 0.1508916 0.9885503
vn -0.0895218 0.2165849 0.9721506
vn -0.5167038 0.1959617 0.8334363
vn 0.0000000 0.2122551 0.9772143
vn 0.1119255 0.0226478 0.9934584
vn 0.1771341 0.1938100 0.9649152
vn 0.0890833 0.6721904 0.7349994
vn 0.5472604 0.5564058 0.6252348
vn 0.8344687 0.1434000 0.5320699
vn 0.5882787 0.0112821 0.8085795
vn 0.6233954 0.0599551 0.7796048
vn 0.4735200 0.1247390 0.8719053
vn -0.1880918 0.2644351 0.9458835
vn -0.8492765 0.1457818 0.5074219
vn 0.0854355 0.1574658 0.9838217
vn -0.6553178 0.2275804 0.7202539
vn 0.6604623 0.1527753 0.7351525
vn 0.1483122 0.2190976 0.9643649
vn 0.6740477 0.1954791 0.7123535
vn 0.0000000 0.2629961 0.9647968
vn -0.1165881 0.2916101 0.9494054
vn -0.6305243 0.2334558 0.7402279
vn 0.0000000 0.2268118 0.9739385
vn 0.1026156 0.2769297 0.9553952
vn 0.6456451 0.2304044 0.7280495
vn 0.0000000 0.2699149 0.9628841
vn -0.0000015 0.2933684 0.9559995
vn 0.0000006 0.2933693 0.9559992
vn 0.1582688 0.2918780 0.9432699
vn 0.3269429 0.2819646 0.9020001
vn -0.1361056 0.2920293 0.9466752
vn -0.4743058 0.2050287 0.8561526
vn 0.0331480 0.2932083 0.9554737
vn -0.0000002 0.2933697 0.9559991
vn 0.0000000 0.2933690 0.9559993
vn 0.1151813 0.2068273 0.9715738
vn 0.5704350 0.0844174 0.8169929
vn 0.0000000 0.1494815 0.9887645
vn 0.0000000 0.1588893 0.9872963
vn -0.1333564 0.1048891 0.9855021
vn -0.5493442 0.0066518 0.8355697
vn 0.2045496 0.0101872 0.9788032
vn 0.8600051 0.0035246 0.5102732
vn 0.6448925 -0.0548703 0.7623010
vn -0.1101518 0.0117170 0.9938457
vn -0.7074090 -0.0944277 0.7004682
vn 0.0000000 0.0118665 0.9999295
vn 0.0000000 0.0118692 0.9999295
vn 0.1120059 -0.1591873 0.9808740
vn 0.5797595 -0.5725887 0.5796732
vn 0.0972047 -0.6873637 0.7197794
vn 0.0000000 -0.1775684 0.9841085
vn 0.0000000 -0.7212442 0.6926808
vn 0.0000000 -0.1258914 0.9920440
vn 0.0000000 -0.6840379 0.7294464
vn -0.1848248 -0.1939384 0.9634457
vn -0.5797694 -0.5727921 0.5794622
vn -0.0972016 -0.7115330 0.6958970
vn 0.0000000 -0.9999999 0.0000000
vn 0.0000000 -0.9906229 0.1366244
vn 0.0000000 -0.9815742 0.1910814
vn 0.0085588 -0.9999633 0.0000000
vn 0.0000000 -0.9999999 0.0000000
vn 0.2153820 -0.9621025 0.1672403
vn 0.3317343 -0.9433728 0.0001904
vn 0.8880399 -0.4498009 0.0952053
vn 0.5797595 -0.5725887 0.5796732
vn 0.0972047 -0.6873637 0.7197794
vn 0.0000000 -0.7212442 0.6926808
vn 0.0000000 -0.6840379 0.7294464
vn -0.0972016 -0.7115330 0.6958970
vn -0.1087450 -0.9797367 0.1681971
vn -0.5797694 -0.5727921 0.5794622
vn -0.2789632 -0.9603018 0.0001780
vn -0.4410350 -0.8928795 0.0908510
vn -0.9409474 -0.3385526 0.0003290
vn -0.9356536 0.0627974 0.3472873
vn -0.9702721 0.0355652 0.2393890
vn -0.9999999 0.0000000 0.0000000
vn -0.5448099 0.1509531 0.8248607
vn -0.6407586 0.0577328 0.7655686
vn -0.5167038 0.1959617 0.8334363
vn -0.9863059 -0.0009908 0.1649230
vn -0.5611811 0.0219291 0.8274025
vn -0.9803561 0.0467550 0.1916137
vn -0.9924226 0.1216656 0.0171681
vn -0.8492765 0.1457818 0.5074219
vn -0.9999999 0.0000000 0.0000000
vn -0.9070827 0.1353327 0.3986050
vn -0.3756959 0.1137487 0.9197357
vn -0.5474244 0.5593767 0.6224340
vn -0.8411080 0.5140119 0.1683126
vn -0.4497108 0.8844336 0.1246494
vn -0.9844041 0.0566940 0.1665362
vn -0.9590508 0.0919318 0.2678991
vn -0.6553178 0.2275804 0.7202539
vn -0.9585552 0.0404165 0.2820253
vn -0.6305243 0.2334558 0.7402279
vn -0.4743058 0.2050287 0.8561526
vn -0.9999061 -0.0136996 0.0000226
vn -0.5493442 0.0066518 0.8355697
vn -0.9607695 -0.2408375 0.1375468
vn -0.9409474 -0.3385526 0.0003290
vn -0.7074090 -0.0944277 0.7004682
vn -0.4410350 -0.8928795 0.0908510
vn -0.5797694 -0.5727921 0.5794622
vn 0.9527779 0.0146820 0.3033129
vn 0.9701095 0.0007783 0.2426666
vn 0.9999999 0.0000000 0.0000000
vn 0.9833762 0.1797955 0.0253917
vn 0.9828377 0.0294801 0.1821012
vn 0.9611676 0.2388379 0.1382503
vn 0.8918414 0.4479124 0.0631931
vn 0.5179517 0.8296943 0.2081663
vn 0.5472604 0.5564058 0.6252348
vn 0.8344687 0.1434000 0.5320699
vn 0.5882787 0.0112821 0.8085795
vn 0.6233954 0.0599551 0.7796048
vn 0.4735200 0.1247390 0.8719053
vn 0.9999999 0.0000000 0.0000000
vn 0.8877508 0.0777745 0.4537064
vn 0.6604623 0.1527753 0.7351525
vn 0.9737112 0.0559711 0.2208024
vn 0.6740477 0.1954791 0.7123535
vn 0.9753675 0.0695206 0.2093441
vn 0.6456451 0.2304044 0.7280495
vn 0.9692248 0.0529094 0.2404242
vn 0.3269429 0.2819646 0.9020001
vn 0.5704350 0.0844174 0.8169929
vn 0.8600051 0.0035246 0.5102732
vn 0.9849475 -0.1728535 0.0001693
vn 0.6448925 -0.0548703 0.7623010
vn 0.8880399 -0.4498009 0.0952053
vn 0.3317343 -0.9433728 0.0001904
vn 0.9609996 -0.1468656 0.2343292
vn 0.5797595 -0.5725887 0.5796732
vn 0.0000000 0.9902221 0.1394993
vn 0.0000000 0.9609389 0.2767603
vn 0.0000000 0.9548903 0.2969587
vn -0.0717924 0.9876670 0.1391394
vn 0.0000000 0.9902221 0.1394993
vn -0.1824975 0.9416637 0.2827792
vn -0.4497108 0.8844336 0.1246494
vn -0.8411080 0.5140119 0.1683126
vn -0.5474244 0.5593767 0.6224340
vn -0.0891211 0.6556407 0.7497951
vn 0.0000004 0.6835308 0.7299216
vn 0.0000004 0.6493037 0.7605291
vn 0.0890833 0.6721904 0.7349994
vn 0.1371911 0.9428436 0.3036846
vn 0.5472604 0.5564058 0.6252348
vn 0.2142644 0.9672186 0.1363043
vn 0.5179517 0.8296943 0.2081663
vn 0.8918414 0.4479124 0.0631931
usemtl Merged_6
f 1/1/1 2/2/2 3/3/3
f 3/3/3 4/4/4 1/1/1
f 5/5/5 3/3/3 2/2/2
f 6/6/6 1/1/1 4/4/4
f 3/3/3 5/5/5 7/7/7
f 4/4/4 3/3/3 8/8/8
f 7/7/7 8/8/8 3/3/3
f 2/2/2 1/1/1 9/9/9
f 8/8/8 7/7/7 10/10/10
f 11/11/11 10/10/10 7/7/7
f 7/7/7 12/12/12 11/11/11
f 12/12/12 7/7/7 5/5/5
f 10/10/10 13/13/13 8/8/8
f 5/5/5 14/14/14 12/12/12
f 15/15/15 8/8/8 13/13/13
f 8/8/8 15/15/15 4/4/4
f 13/13/13 16/16/16 15/15/15
f 14/14/14 5/5/5 17/17/17
f 2/2/2 17/17/17 5/5/5
f 17/17/17 18/18/18 14/14/14
f 19/19/19 15/15/15 16/16/16
f 16/16/16 20/20/20 19/19/19
f 21/21/21 4/4/4 15/15/15
f 15/15/15 19/19/19 21/21/21
f 4/4/4 21/21/21 6/6/6
f 22/22/22 19/19/19 20/20/20
f 20/20/20 23/23/23 22/22/22
f 24/24/24 21/21/21 19/19/19
f 19/19/19 22/22/22 24/24/24
f 17/17/17 2/2/2 25/25/25
f 9/9/9 25/25/25 2/2/2
f 18/18/18 17/17/17 26/26/26
f 25/25/25 26/26/26 17/17/17
f 26/26/26 27/27/27 18/18/18
f 28/28/28 27/27/27 26/26/26
f 26/26/26 29/29/29 28/28/28
f 30/30/30 29/29/29 26/26/26
f 26/26/26 25/25/25 30/30/30
f 31/31/31 30/30/30 25/25/25
f 25/25/25 9/9/9 31/31/31
f 32/32/32 31/31/31 9/9/9
f 33/33/33 22/22/22 23/23/23
f 23/23/23 34/34/34 33/33/33
f 9/9/9 35/35/35 32/32/32
f 33/33/33 34/34/34 36/36/36
f 35/35/35 9/9/9 1/1/1
f 37/37/37 32/32/32 35/35/35
f 1/1/1 6/6/6 35/35/35
f 35/35/35 38/38/38 37/37/37
f 38/38/38 35/35/35 6/6/6
f 39/39/39 37/37/37 38/38/38
f 22/22/22 33/33/33 40/40/40
f 40/40/40 24/24/24 22/22/22
f 36/36/36 41/41/41 33/33/33
f 41/41/41 36/36/36 42/42/42
f 6/6/6 43/43/43 38/38/38
f 43/43/43 6/6/6 21/21/21
f 21/21/21 24/24/24 43/43/43
f 38/38/38 44/44/44 39/39/39
f 44/44/44 38/38/38 43/43/43
f 45/45/45 39/39/39 44/44/44
f 46/46/46 43/43/43 24/24/24
f 24/24/24 40/40/40 46/46/46
f 43/43/43 46/46/46 44/44/44
f 47/47/47 40/40/40 33/33/33
f 33/33/33 41/41/41 47/47/47
f 48/48/48 46/46/46 40/40/40
f 48/48/48 44/44/44 46/46/46
f 40/40/40 47/47/47 48/48/48
f 44/44/44 49/49/49 45/45/45
f 48/48/48 49/49/49 44/44/44
f 50/50/50 45/45/45 49/49/49
f 42/42/42 51/51/51 41/41/41
f 51/51/51 42/42/42 52/52/52
f 49/49/49 53/53/53 50/50/50
f 53/53/53 49/49/49 48/48/48
f 54/54/54 47/47/47 41/41/41
f 41/41/41 51/51/51 54/54/54
f 55/55/55 48/48/48 47/47/47
f 48/48/48 55/55/55 53/53/53
f 47/47/47 54/54/54 55/55/55
f 50/50/50 53/53/53 56/56/56
f 56/56/56 53/53/53 55/55/55
f 56/56/56 57/57/57 50/50/50
f 58/58/58 55/55/55 54/54/54
f 55/55/55 58/58/58 56/56/56
f 59/59/59 54/54/54 51/51/51
f 54/54/54 59/59/59 58/58/58
f 52/52/52 60/60/60 51/51/51
f 51/51/51 60/60/60 59/59/59
f 60/60/60 52/52/52 61/61/61
f 57/57/57 56/56/56 62/62/62
f 62/62/62 56/56/56 58/58/58
f 62/62/62 63/63/63 57/57/57
f 64/64/64 63/63/63 62/62/62
f 61/61/61 65/65/65 60/60/60
f 65/65/65 61/61/61 66/66/66
f 67/67/67 59/59/59 60/60/60
f 60/60/60 65/65/65 67/67/67
f 68/68/68 58/58/58 59/59/59
f 58/58/58 68/68/68 62/62/62
f 59/59/59 67/67/67 68/68/68
f 62/62/62 69/69/69 64/64/64
f 69/69/69 62/62/62 68/68/68
f 70/70/70 64/64/64 69/69/69
f 69/69/69 71/71/71 70/70/70
f 68/68/68 72/72/72 69/69/69
f 71/71/71 69/69/69 72/72/72
f 72/72/72 68/68/68 67/67/67
f 72/72/72 73/73/73 71/71/71
f 67/67/67 74/74/74 72/72/72
f 73/73/73 72/72/72 74/74/74
f 74/74/74 67/67/67 65/65/65
f 74/74/74 75/75/75 73/73/73
f 66/66/66 76/76/76 65/65/65
f 65/65/65 76/76/76 74/74/74
f 75/75/75 74/74/74 76/76/76
f 76/76/76 66/66/66 77/77/77
f 76/76/76 78/78/78 75/75/75
f 77/77/77 78/78/78 76/76/76
f 79/79/79 80/80/80 81/81/81
f 80/80/80 79/79/79 82/82/82
f 81/81/81 83/83/83 79/79/79
f 82/82/82 84/84/84 80/80/80
f 84/84/84 82/82/82 85/85/85
f 85/85/85 86/86/86 84/84/84
f 84/84/84 86/86/86 87/87/87
f 87/87/87 88/88/88 84/84/84
f 84/84/84 88/88/88 89/89/89
f 89/89/89 80/80/80 84/84/84
f 80/80/80 89/89/89 90/90/90
f 90/90/90 81/81/81 80/80/80
f 81/81/81 90/90/90 91/91/91
f 83/83/83 81/81/81 92/92/92
f 91/91/91 92/92/92 81/81/81
f 92/92/92 91/91/91 93/93/93
f 92/92/92 94/94/94 83/83/83
f 93/93/93 95/95/95 92/92/92
f 94/94/94 92/92/92 95/95/95
f 95/95/95 96/96/96 94/94/94
f 97/97/97 98/98/98 99/99/99
f 98/98/98 97/97/97 100/100/100
f 100/100/100 101/101/101 98/98/98
f 102/102/102 100/100/100 97/97/97
f 103/103/103 98/98/98 101/101/101
f 98/98/98 103/103/103 99/99/99
f 101/101/101 104/104/104 103/103/103
f 97/97/97 105/105/105 102/102/102
f 106/106/106 99/99/99 103/103/103
f 107/107/107 102/102/102 105/105/105
f 97/97/97 99/99/99 108/108/108
f 108/108/108 105/105/105 97/97/97
f 109/109/109 103/103/103 104/104/104
f 103/103/103 109/109/109 106/106/106
f 104/104/104 110/110/110 109/109/109
f 109/109/109 110/110/110 111/111/111
f 111/111/111 112/112/112 109/109/109
f 106/106/106 109/109/109 112/112/112
f 112/112/112 113/113/113 106/106/106
f 105/105/105 114/114/114 107/107/107
f 114/114/114 105/105/105 108/108/108
f 107/107/107 114/114/114 115/115/115
f 115/115/115 114/114/114 108/108/108
f 115/115/115 116/116/116 107/107/107
f 108/108/108 117/117/117 115/115/115
f 116/116/116 115/115/115 117/117/117
f 117/117/117 118/118/118 116/116/116
f 117/117/117 119/119/119 118/118/118
f 117/117/117 108/108/108 120/120/120
f 121/121/121 119/119/119 117/117/117
f 120/120/120 122/122/122 117/117/117
f 121/121/121 117/117/117 122/122/122
f 122/122/122 120/120/120 123/123/123
f 122/122/122 124/124/124 121/121/121
f 123/123/123 125/125/125 122/122/122
f 126/126/126 124/124/124 122/122/122
f 122/122/122 125/125/125 126/126/126
f 127/127/127 128/128/128 129/129/129
f 127/127/127 129/129/129 130/130/130
f 128/128/128 131/131/131 129/129/129
f 130/130/130 132/132/132 127/127/127
f 132/132/132 130/130/130 133/133/133
f 133/133/133 134/134/134 132/132/132
f 132/132/132 134/134/134 135/135/135
f 135/135/135 136/136/136 132/132/132
f 127/127/127 132/132/132 136/136/136
f 136/136/136 137/137/137 127/127/127
f 128/128/128 127/127/127 137/137/137
f 137/137/137 138/138/138 128/128/128
f 131/131/131 128/128/128 138/138/138
f 138/138/138 139/139/139 131/131/131
f 140/140/140 129/129/129 131/131/131
f 141/141/141 131/131/131 139/139/139
f 131/131/131 141/141/141 140/140/140
f 139/139/139 142/142/142 141/141/141
f 143/143/143 141/141/141 142/142/142
f 141/141/141 143/143/143 140/140/140
f 142/142/142 144/144/144 143/143/143
f 145/145/145 143/143/143 144/144/144
f 140/140/140 143/143/143 145/145/145
f 144/144/144 146/146/146 145/145/145
f 145/145/145 147/147/147 140/140/140
f 147/147/147 145/145/145 146/146/146
f 146/146/146 148/148/148 147/147/147
f 148/148/148 149/149/149 147/147/147
f 147/147/147 149/149/149 150/150/150
f 151/151/151 140/140/140 147/147/147
f 147/147/147 150/150/150 152/152/152
f 153/153/153 154/154/154 151/151/151
f 152/152/152 155/155/155 147/147/147
f 147/147/147 155/155/155 151/151/151
f 151/151/151 155/155/155 153/153/153
f 155/155/155 152/152/152 156/156/156
f 156/156/156 153/153/153 155/155/155
f 157/157/157 158/158/158 159/159/159
f 158/158/158 157/157/157 160/160/160
f 159/159/159 161/161/161 157/157/157
f 160/160/160 162/162/162 158/158/158
f 162/162/162 160/160/160 163/163/163
f 163/163/163 164/164/164 162/162/162
f 162/162/162 164/164/164 165/165/165
f 165/165/165 166/166/166 162/162/162
f 162/162/162 166/166/166 167/167/167
f 167/167/167 158/158/158 162/162/162
f 158/158/158 167/167/167 168/168/168
f 168/168/168 159/159/159 158/158/158
f 159/159/159 168/168/168 169/169/169
f 161/161/161 159/159/159 170/170/170
f 169/169/169 170/170/170 159/159/159
f 170/170/170 169/169/169 171/171/171
f 170/170/170 172/172/172 161/161/161
f 171/171/171 173/173/173 170/170/170
f 172/172/172 170/170/170 173/173/173
f 173/173/173 174/174/174 172/172/172
o $physics_proxy_1
