# cgf-converter .obj export version 1.0.0.0
#
mtllib dam_pipe_short_b_grind.mtl
o mayalod
g mayalod
v 1.4999999 -0.2055703 0.2829381
v -0.0000006 -0.2055662 0.2829381
v 1.4999998 -0.2829421 0.2055667
v 1.5000002 -0.1080764 0.3326135
v -0.0000008 -0.2829380 0.2055667
v -0.0000003 -0.1080723 0.3326135
v -0.0000009 -0.3326134 0.1080727
v 1.5000005 -0.0000036 0.3497303
v 1.4999995 -0.3326175 0.1080727
v 0.0000000 0.0000005 0.3497303
v -0.0000009 -0.3497305 0.0000002
v 1.5000007 0.1080692 0.3326132
v 1.4999995 -0.3497345 0.0000002
v 0.0000003 0.1080732 0.3326132
v -0.0000009 -0.3326136 -0.1080723
v 1.5000011 0.2055629 0.2829376
v 1.4999995 -0.3326177 -0.1080723
v 0.0000006 0.2055670 0.2829376
v -0.0000008 -0.2829382 -0.2055662
v 1.5000012 0.2829345 0.2055659
v 1.4999998 -0.2829423 -0.2055662
v 0.0000008 0.2829385 0.2055659
v -0.0000006 -0.2055669 -0.2829379
v 1.5000014 0.3326097 0.1080718
v 1.4999999 -0.2055710 -0.2829379
v 0.0000009 0.3326137 0.1080718
v -0.0000003 -0.1080730 -0.3326131
v 1.5000014 0.3497264 -0.0000007
v 1.5000002 -0.1080771 -0.3326131
v 0.0000009 0.3497305 -0.0000007
v 0.0000000 -0.0000005 -0.3497303
v 1.5000005 -0.0000045 -0.3497303
v 1.5000014 0.3326093 -0.1080732
v 0.0000009 0.3326133 -0.1080732
v 1.5000012 0.2829336 -0.2055670
v 0.0000008 0.2829377 -0.2055670
v 1.5000011 0.2055621 -0.2829384
v 0.0000006 0.2055662 -0.2829384
v 1.5000007 0.1080681 -0.3326134
v 0.0000003 0.1080721 -0.3326134
v 1.5000005 -0.0000045 -0.3497303
v 0.0000000 -0.0000005 -0.3497303

vt -0.0000001 0.7999767 0
vt 0.2999958 0.7999766 0
vt -0.0000001 0.8249796 0
vt -0.0000001 0.7749739 0
vt 0.2999958 0.8249795 0
vt 0.2999958 0.7749739 0
vt 0.2999958 0.8499824 0
vt -0.0000001 0.7499708 0
vt -0.0000001 0.8499825 0
vt 0.2999958 0.7499708 0
vt 0.2999958 0.8749853 0
vt -0.0000001 0.7249680 0
vt -0.0000001 0.8749855 0
vt 0.2999958 0.7249680 0
vt 0.2999958 0.8999882 0
vt -0.0000001 0.6999649 0
vt -0.0000001 0.8999884 0
vt 0.2999958 0.6999649 0
vt 0.2999958 0.9249911 0
vt -0.0000001 0.6749620 0
vt -0.0000001 0.9249913 0
vt 0.2999958 0.6749620 0
vt 0.2999958 0.9499940 0
vt -0.0000001 0.6499592 0
vt 0.0000000 0.9499943 0
vt 0.2999958 0.6499592 0
vt 0.2999958 0.9749969 0
vt -0.0000001 0.6249564 0
vt 0.0000000 0.9749971 0
vt 0.2999958 0.6249564 0
vt 0.2999960 0.9999997 0
vt 0.0000000 1.0000000 0
vt -0.0000001 0.5999535 0
vt 0.2999958 0.5999535 0
vt -0.0000001 0.5749503 0
vt 0.2999958 0.5749506 0
vt -0.0000001 0.5499474 0
vt 0.2999958 0.5499476 0
vt -0.0000001 0.5249446 0
vt 0.2999958 0.5249449 0
vt 0.0000000 0.4999417 0
vt 0.2999958 0.4999419 0

vn -0.0000016 -0.5877885 0.8090145
vn -0.0000016 -0.5877885 0.8090145
vn -0.0000022 -0.8090129 0.5877907
vn -0.0000008 -0.3090075 0.9510595
vn -0.0000022 -0.8090129 0.5877907
vn -0.0000008 -0.3090075 0.9510595
vn -0.0000026 -0.9510587 0.3090101
vn 0.0000000 0.0000014 0.9999999
vn -0.0000026 -0.9510587 0.3090101
vn 0.0000000 0.0000014 0.9999999
vn -0.0000027 -0.9999999 0.0000014
vn 0.0000008 0.3090101 0.9510587
vn -0.0000027 -0.9999999 0.0000014
vn 0.0000008 0.3090101 0.9510587
vn -0.0000026 -0.9510595 -0.3090075
vn 0.0000016 0.5877907 0.8090129
vn -0.0000026 -0.9510595 -0.3090075
vn 0.0000016 0.5877907 0.8090129
vn -0.0000022 -0.8090145 -0.5877885
vn 0.0000022 0.8090145 0.5877885
vn -0.0000022 -0.8090145 -0.5877885
vn 0.0000022 0.8090145 0.5877885
vn -0.0000016 -0.5877807 -0.8090202
vn 0.0000026 0.9510595 0.3090075
vn -0.0000016 -0.5877807 -0.8090202
vn 0.0000026 0.9510595 0.3090075
vn -0.0000008 -0.3090101 -0.9510587
vn 0.0000027 0.9999999 -0.0000014
vn -0.0000008 -0.3090101 -0.9510587
vn 0.0000027 0.9999999 -0.0000014
vn 0.0000000 -0.0000014 -0.9999999
vn 0.0000000 -0.0000014 -0.9999999
vn 0.0000026 0.9510587 -0.3090101
vn 0.0000026 0.9510587 -0.3090101
vn 0.0000022 0.8090129 -0.5877907
vn 0.0000022 0.8090129 -0.5877907
vn 0.0000016 0.5877786 -0.8090218
vn 0.0000016 0.5877786 -0.8090218
vn 0.0000008 0.3090075 -0.9510595
vn 0.0000008 0.3090075 -0.9510595
vn 0.0000000 -0.0000014 -0.9999999
vn 0.0000000 -0.0000014 -0.9999999
usemtl dam_pipe_mat
f 1/1/1 2/2/2 3/3/3
f 1/1/1 4/4/4 2/2/2
f 3/3/3 2/2/2 5/5/5
f 2/2/2 4/4/4 6/6/6
f 7/7/7 3/3/3 5/5/5
f 4/4/4 8/8/8 6/6/6
f 9/9/9 3/3/3 7/7/7
f 6/6/6 8/8/8 10/10/10
f 7/7/7 11/11/11 9/9/9
f 8/8/8 12/12/12 10/10/10
f 9/9/9 11/11/11 13/13/13
f 10/10/10 12/12/12 14/14/14
f 15/15/15 13/13/13 11/11/11
f 12/12/12 16/16/16 14/14/14
f 17/17/17 13/13/13 15/15/15
f 14/14/14 16/16/16 18/18/18
f 19/19/19 17/17/17 15/15/15
f 16/16/16 20/20/20 18/18/18
f 21/21/21 17/17/17 19/19/19
f 18/18/18 20/20/20 22/22/22
f 23/23/23 21/21/21 19/19/19
f 20/20/20 24/24/24 22/22/22
f 25/25/25 21/21/21 23/23/23
f 22/22/22 24/24/24 26/26/26
f 27/27/27 25/25/25 23/23/23
f 24/24/24 28/28/28 26/26/26
f 29/29/29 25/25/25 27/27/27
f 26/26/26 28/28/28 30/30/30
f 31/31/31 29/29/29 27/27/27
f 32/32/32 29/29/29 31/31/31
f 28/28/28 33/33/33 30/30/30
f 30/30/30 33/33/33 34/34/34
f 33/33/33 35/35/35 34/34/34
f 34/34/34 35/35/35 36/36/36
f 35/35/35 37/37/37 36/36/36
f 36/36/36 37/37/37 38/38/38
f 37/37/37 39/39/39 38/38/38
f 38/38/38 39/39/39 40/40/40
f 39/39/39 41/41/41 40/40/40
f 40/40/40 41/41/41 42/42/42
