# cgf-converter .obj export version 1.0.0.0
#
mtllib dam-hydroplant-base2.mtl
o dam-hydroplant-base2
g dam-hydroplant-base2
v -22.9044209 17.8947220 1.4520855
v 22.8877220 17.8947220 1.5015850
v 22.8863220 17.9015198 2.5813742
v -22.9033203 17.9014206 2.5318747
v -22.9033203 17.9014206 2.5318747
v 22.8863220 17.9015198 2.5813742
v 23.1033192 18.1049194 2.5715744
v -23.1036167 18.1048183 2.5215747
v 23.1047192 18.0982189 1.3417866
v -23.1047192 18.0982189 1.2917870
v -23.1036167 18.1048183 2.5215747
v 23.1033192 18.1049194 2.5715744
v -22.9033203 17.9398212 1.2917870
v -23.1047192 18.0982189 1.2917870
v 23.1047192 18.0982189 1.3417866
v 22.8864212 17.9398212 1.3417866
v 22.8863220 -17.9015198 2.5813742
v 22.8877220 -17.8947220 1.5015850
v -22.9044209 -17.8947220 1.4520855
v -22.9033203 -17.9014206 2.5318747
v 23.1033192 -18.1049194 2.5715744
v 22.8863220 -17.9015198 2.5813742
v -22.9033203 -17.9014206 2.5318747
v -23.1036167 -18.1048183 2.5215747
v -23.1036167 -18.1048183 2.5215747
v -23.1047192 -18.0982189 1.2917870
v 23.1047192 -18.0982189 1.3417866
v 23.1033192 -18.1049194 2.5715744
v 23.1047192 -18.0982189 1.3417866
v -23.1047192 -18.0982189 1.2917870
v -22.9033203 -17.9398193 1.2917870
v 22.8864212 -17.9398193 1.3417866
v 23.1047192 18.0982189 1.3417866
v 23.1033192 18.1049194 2.5715744
v 23.1033192 -18.1049194 2.5715744
v 23.1047192 -18.0982189 1.3417866
v 22.8877220 -17.8947220 1.5015850
v 22.8863220 -17.9015198 2.5813742
v 22.8863220 17.9015198 2.5813742
v 22.8877220 17.8947220 1.5015850
v 22.8863220 -17.9015198 2.5813742
v 23.1033192 -18.1049194 2.5715744
v 23.1033192 18.1049194 2.5715744
v 22.8863220 17.9015198 2.5813742
v -23.1047192 -18.0982189 1.2917870
v -23.1047192 18.0982189 1.2917870
v -22.9033203 17.9398212 1.2917870
v -22.9033203 -17.9398193 1.2917870
v -22.9044209 17.8947220 1.4520855
v -22.9033203 17.9014206 2.5318747
v -22.9033203 -17.9014206 2.5318747
v -22.9044209 -17.8947220 1.4520855
v -22.9033203 17.9014206 2.5318747
v -23.1036167 18.1048183 2.5215747
v -23.1036167 -18.1048183 2.5215747
v -22.9033203 -17.9014206 2.5318747
v -23.1047192 -18.0982189 1.2917870
v -23.1036167 -18.1048183 2.5215747
v -23.1036167 18.1048183 2.5215747
v -23.1047192 18.0982189 1.2917870
v 23.1047192 18.0982189 1.3417866
v 23.1047192 -18.0982189 1.3417866
v 22.8864212 -17.9398193 1.3417866
v 22.8864212 17.9398212 1.3417866
v 22.9955196 -17.9998188 -2.5813739
v 22.9955196 17.9998188 -2.5813739
v 22.9955196 17.9998188 1.4365857
v 22.9955196 -17.9998188 1.4365857
v -23.0040207 -17.9998188 1.4365857
v -23.0040207 17.9998188 1.4365857
v -23.0040207 17.9998188 -2.5813739
v -23.0040207 -17.9998188 -2.5813739
v -23.0040207 -17.9998188 1.4365857
v 22.9955196 -17.9998188 1.4365857
v 22.9955196 17.9998188 1.4365857
v -23.0040207 17.9998188 1.4365857
v -23.0040207 -17.9998188 -2.5813739
v 22.9955196 -17.9998188 -2.5813739
v 22.9955196 -17.9998188 1.4365857
v -23.0040207 -17.9998188 1.4365857
v -23.0040207 17.9998188 1.4365857
v 22.9955196 17.9998188 1.4365857
v 22.9955196 17.9998188 -2.5813739
v -23.0040207 17.9998188 -2.5813739
v -23.0040207 17.9998188 -2.5813739
v 22.9955196 17.9998188 -2.5813739
v 22.9955196 -17.9998188 -2.5813739
v -23.0040207 -17.9998188 -2.5813739

vt -0.0224000 -4.3592000 0
vt -0.0226000 5.7637000 0
vt -0.2613000 5.7635999 0
vt -0.2611000 -4.3586998 0
vt -0.2611000 -4.3586998 0
vt -0.2613000 5.7635999 0
vt -0.3063000 5.8116002 0
vt -0.3061000 -4.4029999 0
vt -0.5782000 5.8116002 0
vt -0.5780000 -4.4036002 0
vt -0.3061000 -4.4029999 0
vt -0.3063000 5.8116002 0
vt -0.6130000 -4.3590002 0
vt -0.5780000 -4.4036002 0
vt -0.5782000 5.8116002 0
vt -0.6132000 5.7632999 0
vt 2.1772001 2.1057999 0
vt 2.0043001 2.1057999 0
vt 2.0046000 -5.2238998 0
vt 2.1773000 -5.2234998 0
vt 2.2098000 2.1405001 0
vt 2.1772001 2.1057999 0
vt 2.1773000 -5.2234998 0
vt 2.2098999 -5.2554998 0
vt 2.2098999 -5.2554998 0
vt 2.4066000 -5.2557998 0
vt 2.4066000 2.1405001 0
vt 2.2098000 2.1405001 0
vt 2.4066000 2.1405001 0
vt 2.4066000 -5.2557998 0
vt 2.4319000 -5.2235999 0
vt 2.4319999 2.1056001 0
vt 0.7369000 4.2389998 0
vt 0.4349000 4.2389998 0
vt 0.4833000 -4.6529002 0
vt 0.7853000 -4.6496000 0
vt 0.1645000 -4.6030002 0
vt 0.4297000 -4.6032000 0
vt 0.3818000 4.1887002 0
vt 0.1167000 4.1855998 0
vt 0.4297000 -4.6032000 0
vt 0.4833000 -4.6529002 0
vt 0.4349000 4.2389998 0
vt 0.3818000 4.1887002 0
vt 0.5209000 -4.3515000 0
vt 0.4735000 4.4348001 0
vt 0.4248000 4.3961000 0
vt 0.4718000 -4.3133998 0
vt 1.0831000 4.3887000 0
vt 0.8210000 4.3888998 0
vt 0.8679000 -4.3018999 0
vt 1.1300000 -4.2989001 0
vt 0.8210000 4.3888998 0
vt 0.7721000 4.4380002 0
vt 0.8195000 -4.3515000 0
vt 0.8679000 -4.3018999 0
vt 0.5209000 -4.3515000 0
vt 0.8195000 -4.3515000 0
vt 0.7721000 4.4380002 0
vt 0.4735000 4.4348001 0
vt 0.7369000 4.2389998 0
vt 0.7853000 -4.6496000 0
vt 0.8387000 -4.6104002 0
vt 0.7907000 4.2003999 0
vt -28.1891003 0.9165000 0
vt -14.8333998 1.0943000 0
vt -14.8532000 2.5848999 0
vt -28.2089005 2.4071000 0
vt 15.5667000 2.9899001 0
vt 2.2117000 2.8120999 0
vt 2.2314999 1.3214999 0
vt 15.5866003 1.4993000 0
vt 15.5811005 5.5081000 0
vt 15.5806999 22.5788002 0
vt 2.2211001 22.5785007 0
vt 2.2214999 5.5078001 0
vt 15.5866003 1.4993000 0
vt 32.6519012 1.7266001 0
vt 32.6320992 3.2172000 0
vt 15.5667000 2.9899001 0
vt 2.2117000 2.8120999 0
vt -14.8532000 2.5848999 0
vt -14.8333998 1.0943000 0
vt 2.2314999 1.3214999 0
vt 2.2214999 -0.8743000 0
vt 2.1684999 -18.0132008 0
vt 15.5816002 -18.0547009 0
vt 15.6345997 -0.9158000 0

vn -0.0000057 -0.9999804 0.0062500
vn -0.0000068 -0.9999801 0.0062968
vn -0.0000057 -0.9999803 0.0062508
vn -0.0000045 -0.9999807 0.0062041
vn -0.0315433 0.0194954 0.9993122
vn 0.0448654 0.0002668 0.9989929
vn 0.0057752 0.0420759 0.9990976
vn -0.0512609 0.0000927 0.9986852
vn 0.0000048 0.9999853 -0.0054070
vn 0.0000058 0.9999855 -0.0053660
vn 0.0000048 0.9999853 -0.0054064
vn 0.0000037 0.9999851 -0.0054474
vn 0.0006362 -0.0008745 -0.9999993
vn 0.0010796 0.0013726 -0.9999983
vn 0.0001432 0.0001802 -0.9999999
vn 0.0010814 -0.0014904 -0.9999982
vn -0.0000046 0.9999806 0.0062054
vn -0.0000068 0.9999800 0.0062968
vn -0.0000068 0.9999802 0.0062954
vn -0.0000045 0.9999807 0.0062041
vn 0.0332953 -0.0126890 0.9993649
vn 0.0338866 -0.0119970 0.9993536
vn -0.0133612 -0.0372603 0.9992161
vn -0.0136892 -0.0371185 0.9992170
vn 0.0000038 -0.9999851 -0.0054470
vn 0.0000058 -0.9999855 -0.0053670
vn 0.0000058 -0.9999855 -0.0053683
vn 0.0000037 -0.9999850 -0.0054484
vn 0.0010857 0.0000766 -0.9999993
vn 0.0000008 -0.0000011 -0.9999999
vn 0.0010821 0.0000174 -0.9999993
vn 0.0000020 0.0000027 -0.9999999
vn 0.9999993 0.0000000 0.0011375
vn 0.9999993 0.0000000 0.0011375
vn 0.9999993 0.0000000 0.0011375
vn 0.9999993 0.0000000 0.0011375
vn -0.9999991 0.0000000 -0.0012956
vn -0.9999991 0.0000000 -0.0012956
vn -0.9999991 0.0000000 -0.0012956
vn -0.9999990 0.0000000 -0.0012956
vn 0.0338866 -0.0119970 0.9993536
vn 0.0332953 -0.0126890 0.9993649
vn 0.0057752 0.0420759 0.9990976
vn 0.0448654 0.0002668 0.9989929
vn 0.0000008 -0.0000011 -0.9999999
vn 0.0010796 0.0013726 -0.9999983
vn 0.0006362 -0.0008745 -0.9999993
vn 0.0010821 0.0000174 -0.9999993
vn 0.9999994 0.0000000 -0.0010197
vn 0.9999993 0.0000000 -0.0010197
vn 0.9999994 0.0000000 -0.0010197
vn 0.9999993 0.0000000 -0.0010197
vn -0.0315433 0.0194954 0.9993122
vn -0.0512609 0.0000927 0.9986852
vn -0.0136892 -0.0371185 0.9992170
vn -0.0133612 -0.0372603 0.9992161
vn -0.9999995 0.0000000 0.0008953
vn -0.9999995 0.0000000 0.0008953
vn -0.9999995 0.0000000 0.0008953
vn -0.9999995 0.0000000 0.0008953
vn 0.0001432 0.0001802 -0.9999999
vn 0.0010857 0.0000766 -0.9999993
vn 0.0000020 0.0000027 -0.9999999
vn 0.0010814 -0.0014904 -0.9999982
vn 0.9999999 0.0000000 0.0000000
vn 0.9999999 0.0000000 0.0000000
vn 0.9999999 0.0000000 0.0000000
vn 0.9999999 0.0000000 0.0000000
vn -0.9999999 0.0000000 0.0000000
vn -0.9999999 0.0000000 0.0000000
vn -0.9999999 0.0000000 0.0000000
vn -0.9999999 0.0000000 0.0000000
vn 0.0000000 0.0000000 0.9999999
vn 0.0000000 0.0000000 0.9999999
vn 0.0000000 0.0000000 0.9999999
vn 0.0000000 0.0000000 0.9999999
vn 0.0000000 -0.9999999 0.0000000
vn 0.0000000 -0.9999999 0.0000000
vn 0.0000000 -0.9999999 0.0000000
vn 0.0000000 -0.9999999 0.0000000
vn 0.0000000 0.9999999 0.0000000
vn 0.0000000 0.9999999 0.0000000
vn 0.0000000 0.9999999 0.0000000
vn 0.0000000 0.9999999 0.0000000
vn 0.0000000 0.0000000 -0.9999999
vn 0.0000000 0.0000000 -0.9999999
vn 0.0000000 0.0000000 -0.9999999
vn 0.0000000 0.0000000 -0.9999999
usemtl dam_concrete
f 1/1/1 2/2/2 3/3/3
f 3/3/3 4/4/4 1/1/1
f 5/5/5 6/6/6 7/7/7
f 7/7/7 8/8/8 5/5/5
f 9/9/9 10/10/10 11/11/11
f 11/11/11 12/12/12 9/9/9
f 13/13/13 14/14/14 15/15/15
f 15/15/15 16/16/16 13/13/13
f 17/17/17 18/18/18 19/19/19
f 19/19/19 20/20/20 17/17/17
f 21/21/21 22/22/22 23/23/23
f 23/23/23 24/24/24 21/21/21
f 25/25/25 26/26/26 27/27/27
f 27/27/27 28/28/28 25/25/25
f 29/29/29 30/30/30 31/31/31
f 31/31/31 32/32/32 29/29/29
f 33/33/33 34/34/34 35/35/35
f 35/35/35 36/36/36 33/33/33
f 37/37/37 38/38/38 39/39/39
f 39/39/39 40/40/40 37/37/37
f 41/41/41 42/42/42 43/43/43
f 43/43/43 44/44/44 41/41/41
f 45/45/45 46/46/46 47/47/47
f 47/47/47 48/48/48 45/45/45
f 49/49/49 50/50/50 51/51/51
f 51/51/51 52/52/52 49/49/49
f 53/53/53 54/54/54 55/55/55
f 55/55/55 56/56/56 53/53/53
f 57/57/57 58/58/58 59/59/59
f 59/59/59 60/60/60 57/57/57
f 61/61/61 62/62/62 63/63/63
f 63/63/63 64/64/64 61/61/61
f 65/65/65 66/66/66 67/67/67
f 67/67/67 68/68/68 65/65/65
f 69/69/69 70/70/70 71/71/71
f 71/71/71 72/72/72 69/69/69
f 73/73/73 74/74/74 75/75/75
f 75/75/75 76/76/76 73/73/73
f 77/77/77 78/78/78 79/79/79
f 79/79/79 80/80/80 77/77/77
f 81/81/81 82/82/82 83/83/83
f 83/83/83 84/84/84 81/81/81
f 85/85/85 86/86/86 87/87/87
f 87/87/87 88/88/88 85/85/85
o $physics_proxy_base2
